<?xml version="1.0" standalone="no"?>
<!DOCTYPE svg PUBLIC "-//W3C//DTD SVG 20010904//EN"
 "http://www.w3.org/TR/2001/REC-SVG-20010904/DTD/svg10.dtd">
<svg version="1.0" xmlns="http://www.w3.org/2000/svg"
 width="1488.000000pt" height="1488.000000pt" viewBox="0 0 1488.000000 1488.000000"
 preserveAspectRatio="xMidYMid meet">
<metadata>
Created by potrace 1.11, written by Peter Selinger 2001-2013
</metadata>
<g transform="translate(0.000000,1488.000000) scale(0.100000,-0.100000)"
fill="#000000" stroke="none">
<path d="M10110 13772 c0 -4 -25 -5 -56 -4 -45 3 -55 1 -48 -10 6 -11 5 -11
-9 1 -14 11 -17 11 -17 0 0 -11 -2 -11 -10 1 -8 13 -10 13 -10 1 0 -12 -3 -12
-12 -3 -8 8 -15 9 -25 1 -10 -9 -13 -8 -13 1 0 9 -4 9 -17 -1 -15 -12 -16 -12
-8 1 8 13 7 13 -8 1 -14 -11 -17 -11 -17 0 0 12 -2 12 -9 0 -5 -7 -11 -9 -14
-4 -7 11 -37 11 -55 -1 -7 -4 -12 -2 -12 6 0 10 -2 10 -9 -1 -5 -7 -11 -9 -14
-4 -7 11 -36 11 -54 0 -6 -4 -14 -3 -17 1 -6 10 -36 9 -53 -1 -6 -4 -14 -1
-16 5 -4 10 -8 9 -16 -2 -6 -8 -11 -10 -11 -5 0 6 -9 11 -20 11 -11 0 -20 -4
-20 -9 0 -4 -4 -5 -10 -2 -5 3 -10 2 -10 -2 0 -5 -36 -8 -80 -6 -62 2 -79 0
-74 -10 6 -9 5 -9 -7 0 -9 7 -45 11 -99 9 -47 -1 -91 2 -97 7 -7 5 -13 6 -13
1 0 -5 -54 -9 -120 -8 -66 1 -117 -3 -114 -7 3 -5 -1 -9 -8 -9 -9 0 -9 -3 2
-10 10 -6 11 -10 3 -10 -7 0 -13 -4 -13 -10 0 -5 8 -7 18 -4 15 5 15 4 1 -5
-11 -7 -16 -22 -14 -41 1 -16 -1 -27 -6 -24 -5 2 -8 -19 -8 -48 1 -29 0 -57
-1 -63 -1 -5 -2 -13 -2 -17 1 -3 -5 -12 -14 -18 -12 -11 -13 -10 -9 3 4 8 1
18 -6 23 -8 4 -10 3 -5 -4 4 -7 1 -12 -6 -12 -7 0 -13 11 -13 24 0 13 4 21 10
18 6 -3 4 1 -2 10 -7 8 -10 18 -6 21 3 4 -1 7 -11 7 -9 0 -15 4 -12 9 8 12 -4
42 -14 36 -4 -2 -7 5 -6 18 0 12 -4 21 -10 20 -6 -1 -10 11 -9 28 1 20 -3 29
-13 29 -12 0 -12 3 -2 16 11 12 11 15 -1 12 -8 -2 -13 3 -11 10 1 8 -2 11 -8
7 -6 -3 -7 -12 -3 -18 4 -7 0 -7 -10 1 -12 11 -27 12 -62 4 -27 -6 -45 -6 -45
0 0 5 -7 5 -17 0 -10 -5 -30 -8 -46 -6 -15 1 -25 0 -23 -4 5 -9 -99 -6 -113 3
-6 3 -11 -1 -11 -9 0 -19 -16 -21 -26 -4 -5 7 -3 8 6 3 9 -5 11 -4 6 3 -5 9
-14 7 -32 -4 -13 -9 -24 -12 -24 -7 0 13 -35 9 -53 -6 -13 -10 -16 -9 -20 6
-3 12 -5 13 -6 3 -1 -12 -18 -15 -96 -14 -75 1 -95 -2 -95 -13 0 -10 -5 -11
-17 -4 -12 6 -21 5 -31 -7 -7 -10 -11 -11 -7 -4 3 6 2 12 -2 12 -5 0 -15 -6
-22 -12 -11 -10 -13 -10 -7 0 4 6 2 12 -3 12 -6 0 -11 -5 -11 -11 0 -8 -5 -8
-15 1 -12 10 -15 10 -15 -1 0 -10 -3 -10 -8 -3 -10 16 -53 10 -64 -9 -5 -9
-16 -17 -25 -17 -9 0 -25 -8 -36 -17 -11 -10 -18 -13 -14 -8 3 6 2 17 -4 25
-6 11 -9 12 -9 2 0 -7 -4 -10 -10 -7 -5 3 -10 0 -10 -7 0 -10 -2 -10 -9 1 -7
11 -13 9 -30 -8 -11 -11 -21 -17 -21 -11 0 5 -7 7 -16 3 -11 -4 -12 -8 -4 -13
7 -5 2 -9 -14 -12 -15 -3 -29 -1 -32 4 -3 5 -16 3 -29 -6 -17 -11 -25 -12 -34
-3 -10 9 -12 9 -9 -3 2 -8 -4 -15 -12 -15 -8 0 -21 -6 -29 -13 -10 -10 -16
-10 -28 -1 -11 10 -13 10 -11 -1 2 -7 -6 -14 -17 -15 -11 -2 -34 -8 -52 -13
-17 -6 -35 -7 -39 -4 -4 4 -5 2 -1 -3 3 -6 -3 -16 -13 -23 -17 -10 -18 -9 -14
6 5 14 4 15 -5 2 -13 -19 -11 -80 3 -80 6 0 4 -5 -4 -10 -8 -5 -10 -10 -5 -10
6 0 10 -13 11 -30 1 -16 -3 -27 -8 -23 -6 3 -5 -4 1 -16 7 -11 14 -21 17 -21
3 0 2 5 -2 12 -4 7 -3 8 4 4 7 -4 12 -20 12 -37 0 -16 4 -29 8 -29 4 0 9 -10
10 -22 5 -46 8 -58 22 -71 11 -9 11 -8 0 8 -14 19 -14 19 3 6 13 -10 15 -17 6
-27 -6 -8 -7 -14 -2 -14 8 0 12 -15 15 -58 1 -6 4 -10 6 -7 9 8 31 -30 23 -40
-8 -11 12 -79 20 -70 3 3 6 -1 6 -7 0 -7 3 -24 6 -38 l7 -25 -12 23 c-9 17
-18 22 -35 19 -16 -3 -27 2 -34 16 -8 14 -8 18 0 13 6 -4 11 -2 11 3 0 10 -22
16 -43 12 -5 -1 -6 3 -2 9 3 5 1 10 -4 10 -6 0 -10 3 -10 8 1 4 1 13 0 21 -1
11 -4 11 -18 0 -15 -13 -15 -12 -3 11 12 22 11 23 -1 13 -13 -10 -15 -8 -13
17 1 21 -2 27 -12 23 -8 -3 -14 0 -14 7 0 6 -7 18 -15 27 -8 8 -12 20 -8 26 4
7 -2 5 -12 -3 -10 -8 -16 -10 -13 -5 4 6 -7 21 -23 34 -16 13 -29 30 -29 38 0
8 -4 11 -10 8 -5 -3 -10 1 -10 10 0 11 -5 15 -16 11 -8 -3 -13 -2 -10 3 3 5
-1 11 -9 15 -8 3 -15 12 -15 21 0 8 -6 15 -12 15 -7 0 -22 14 -33 30 -11 16
-26 30 -32 30 -7 0 -13 5 -13 11 0 6 -9 9 -20 6 -11 -3 -20 0 -20 6 0 8 -3 8
-8 2 -8 -12 -28 -18 -58 -19 -12 -1 -20 -6 -17 -11 3 -10 -15 -15 -57 -17 -8
0 -21 -6 -29 -12 -12 -9 -13 -8 -7 4 5 9 2 8 -7 -2 -10 -13 -16 -15 -25 -6 -9
9 -12 9 -12 -1 0 -8 -6 -11 -15 -7 -8 3 -14 0 -12 -7 1 -7 -8 -11 -27 -9 -15
2 -26 0 -23 -5 3 -4 -11 -9 -31 -11 -20 -1 -40 -8 -44 -15 -6 -9 -8 -9 -8 1 0
7 -5 10 -10 7 -6 -4 -8 -10 -5 -14 2 -5 -6 -6 -19 -4 -13 3 -30 -2 -39 -12
-13 -12 -17 -13 -17 -3 0 10 -3 9 -10 -2 -8 -13 -10 -13 -10 -1 0 11 -4 10
-16 -5 -8 -10 -12 -12 -8 -4 6 12 4 13 -7 3 -7 -7 -23 -13 -35 -13 -13 0 -26
-4 -29 -10 -3 -5 -16 -10 -29 -10 -12 0 -27 -5 -34 -12 -9 -9 -12 -9 -12 3 0
12 -2 12 -10 -1 -5 -8 -19 -15 -32 -17 -72 -7 -139 -32 -131 -48 3 -5 0 -5 -7
2 -9 9 -20 7 -47 -8 -19 -11 -32 -15 -29 -10 4 5 -2 9 -13 8 -11 0 -17 -5 -15
-9 5 -8 -17 -12 -42 -9 -7 1 -14 -5 -18 -14 -3 -8 -12 -15 -21 -15 -8 0 -15
-5 -15 -12 0 -6 -7 -3 -15 8 -13 16 -14 17 -9 1 4 -10 3 -17 -2 -15 -5 1 -19
-3 -30 -10 -12 -6 -24 -8 -28 -5 -3 3 -6 1 -6 -5 0 -7 -9 -12 -21 -12 -11 0
-17 -4 -14 -10 3 -6 -4 -10 -18 -10 -14 0 -30 -7 -37 -15 -7 -9 -19 -14 -27
-11 -7 3 -13 -1 -13 -9 0 -9 -8 -12 -20 -10 -13 3 -18 0 -14 -7 5 -8 1 -9 -10
-5 -13 5 -17 3 -13 -7 4 -10 0 -12 -14 -9 -11 3 -19 0 -19 -7 0 -10 -3 -10
-15 0 -13 11 -14 10 -8 -6 5 -16 4 -17 -8 -7 -11 9 -20 5 -43 -18 -21 -20 -33
-26 -41 -19 -15 12 -39 -12 -27 -26 4 -4 0 -3 -8 3 -11 8 -18 8 -27 -2 -10
-11 -10 -15 0 -19 7 -3 2 -3 -10 0 -13 3 -23 1 -23 -5 0 -5 -9 -8 -21 -6 -16
3 -19 0 -14 -13 3 -9 3 -13 -1 -9 -4 4 -14 1 -22 -6 -13 -10 -14 -9 -8 3 5 8
-2 4 -15 -10 -13 -14 -20 -19 -14 -10 5 8 -4 3 -21 -13 -17 -15 -34 -24 -39
-20 -4 5 -5 3 -2 -3 6 -10 -17 -28 -26 -21 -1 1 -16 -10 -32 -25 -16 -16 -38
-28 -48 -28 -10 0 -15 -4 -12 -10 3 -5 1 -10 -4 -10 -27 0 -52 -20 -43 -34 3
-5 -5 -7 -16 -4 -16 4 -22 2 -22 -9 0 -9 -6 -13 -15 -9 -14 5 -20 -6 -15 -29
1 -5 -2 -7 -6 -2 -4 4 -19 -3 -32 -15 -14 -13 -22 -17 -17 -9 5 9 -1 7 -19 -4
-14 -10 -26 -22 -26 -27 0 -5 -5 -6 -12 -2 -8 5 -9 2 -5 -10 4 -10 3 -15 -3
-11 -5 3 -17 -3 -27 -15 -10 -11 -23 -20 -30 -20 -7 0 -13 -7 -13 -16 0 -8 -4
-13 -9 -10 -5 3 -22 -8 -40 -24 -17 -17 -36 -30 -42 -30 -6 0 -8 -7 -5 -16 3
-9 2 -12 -5 -9 -5 4 -18 -2 -27 -12 -9 -11 -25 -22 -35 -26 -10 -4 -15 -12
-11 -18 4 -8 1 -8 -15 0 -17 10 -20 9 -15 -4 4 -8 1 -15 -6 -15 -6 0 -8 -5 -5
-10 4 -6 1 -9 -7 -8 -7 2 -12 -2 -11 -9 2 -7 -4 -10 -12 -7 -10 4 -15 0 -15
-11 0 -15 -2 -15 -16 -5 -8 8 -14 9 -13 4 4 -21 -2 -34 -13 -31 -7 1 -12 -3
-11 -10 2 -7 -6 -10 -17 -8 -13 3 -17 -1 -13 -11 3 -9 -1 -14 -11 -14 -9 0
-19 -7 -22 -15 -4 -8 -11 -12 -17 -8 -6 4 -8 0 -4 -11 4 -9 3 -15 -2 -12 -4 3
-16 -3 -26 -14 -10 -11 -23 -20 -28 -20 -5 0 -20 -12 -33 -26 -13 -14 -28 -23
-33 -20 -4 3 -13 -6 -19 -19 -7 -14 -15 -25 -19 -24 -20 3 -27 -2 -13 -11 11
-7 11 -10 2 -10 -7 0 -11 -4 -8 -9 3 -4 -5 -7 -17 -6 -20 2 -23 -2 -21 -26 1
-16 -2 -26 -7 -23 -5 3 -7 10 -4 15 4 5 4 9 0 9 -8 0 -29 -53 -26 -65 2 -5 0
-7 -4 -3 -10 10 -48 -29 -40 -41 3 -6 1 -11 -5 -11 -6 0 -9 -4 -5 -9 3 -5 -4
-16 -16 -25 -13 -9 -18 -19 -14 -27 5 -7 4 -10 -1 -7 -13 8 -31 -15 -28 -35 1
-10 -2 -14 -9 -10 -6 4 -8 0 -4 -10 4 -10 2 -14 -6 -11 -13 5 -40 -44 -31 -58
3 -5 2 -8 -3 -7 -19 3 -33 -2 -33 -12 0 -5 6 -7 12 -4 7 4 0 -5 -16 -18 -16
-14 -26 -29 -22 -35 3 -5 -1 -13 -10 -16 -10 -4 -14 -12 -10 -22 5 -14 4 -15
-8 -5 -12 10 -14 9 -12 -6 3 -18 -15 -44 -26 -37 -3 2 -5 -7 -3 -21 2 -20 0
-23 -12 -14 -10 9 -12 9 -8 -3 3 -8 -5 -26 -19 -41 -14 -15 -22 -27 -19 -27 3
0 0 -6 -6 -13 -6 -8 -7 -18 -3 -22 4 -5 2 -5 -4 -2 -7 4 -18 -1 -25 -10 -12
-14 -12 -16 1 -8 13 8 13 6 2 -8 -8 -9 -10 -22 -6 -29 4 -7 4 -10 -1 -6 -10
10 -34 -21 -35 -44 0 -10 -5 -18 -11 -18 -6 0 -9 -6 -6 -13 5 -12 -17 -40 -26
-31 -2 3 -3 -7 -2 -21 2 -14 0 -23 -4 -21 -3 2 -18 -20 -31 -50 -14 -30 -28
-54 -31 -54 -6 0 -19 -38 -18 -49 0 -2 -3 -7 -8 -10 -15 -10 -43 -73 -37 -82
3 -5 0 -9 -6 -9 -5 0 -18 -17 -28 -37 -9 -21 -21 -41 -27 -45 -6 -5 -4 -8 5
-8 8 -1 4 -6 -9 -11 -20 -8 -22 -11 -10 -26 12 -14 12 -16 0 -8 -11 6 -13 3
-9 -13 3 -12 3 -21 -1 -20 -19 2 -22 -4 -10 -19 12 -15 12 -16 -3 -11 -19 8
-28 -9 -24 -46 2 -14 -1 -26 -5 -26 -5 0 -9 -5 -9 -11 0 -5 6 -7 13 -4 6 4 3
-1 -7 -9 -15 -12 -16 -16 -5 -16 9 0 10 -3 3 -8 -12 -7 -22 -35 -30 -77 -2
-14 -6 -35 -9 -47 -3 -13 -8 -36 -11 -53 -4 -16 -11 -36 -17 -42 -6 -9 -5 -13
4 -13 10 0 11 -2 2 -8 -7 -4 -13 -24 -15 -44 -1 -20 -5 -35 -9 -32 -4 2 -9 -5
-12 -16 -3 -12 -1 -18 5 -14 5 4 4 -4 -3 -17 -7 -13 -12 -25 -11 -26 7 -11 0
-23 -10 -17 -7 5 -8 3 -3 -5 13 -23 12 -69 -2 -64 -7 3 -13 0 -13 -6 0 -6 6
-11 13 -11 9 0 9 -2 0 -8 -6 -4 -14 -21 -16 -37 -3 -18 -10 -29 -17 -27 -9 2
-7 -6 5 -24 9 -14 13 -24 8 -21 -5 3 -14 -3 -21 -14 -7 -10 -9 -19 -5 -18 22
4 25 -3 7 -17 -10 -8 -13 -13 -6 -9 7 4 12 -1 12 -14 0 -10 -6 -22 -12 -24
-10 -4 -10 -6 -1 -6 7 -1 10 -7 7 -15 -3 -8 -11 -13 -18 -10 -7 3 -13 -2 -13
-10 0 -8 3 -13 7 -11 4 2 7 -2 7 -10 0 -8 -3 -14 -6 -13 -19 2 -24 -4 -11 -12
12 -8 13 -11 1 -19 -11 -7 -11 -9 0 -14 9 -3 10 -6 2 -6 -8 -1 -10 -13 -6 -36
4 -26 2 -35 -8 -35 -12 0 -12 -2 0 -9 11 -7 9 -11 -8 -21 -19 -10 -20 -14 -9
-28 8 -10 9 -13 1 -9 -8 5 -12 -8 -12 -49 0 -31 -2 -58 -5 -61 -3 -3 -1 -14 4
-23 7 -12 6 -21 -4 -29 -7 -6 -15 -8 -18 -6 -3 3 -3 -6 -1 -20 3 -15 0 -27 -8
-30 -14 -5 -17 -73 -4 -94 3 -6 0 -11 -9 -11 -8 0 -13 -7 -11 -17 2 -10 4 -18
5 -18 1 0 3 -12 4 -27 2 -23 0 -26 -11 -17 -9 8 -10 15 -3 24 7 8 5 12 -4 12
-9 0 -13 -8 -10 -24 3 -17 1 -22 -7 -18 -8 6 -8 2 0 -14 9 -16 9 -21 -1 -21
-10 0 -10 -2 1 -9 11 -7 10 -10 -5 -14 -18 -4 -18 -5 0 -6 20 -1 20 -1 0 -17
-13 -11 -14 -14 -3 -11 9 3 16 -1 16 -9 0 -7 -4 -11 -8 -8 -5 2 -7 -8 -6 -23
2 -24 -2 -28 -23 -27 -23 2 -23 1 -5 -12 18 -13 18 -14 1 -14 -11 0 -16 -5
-13 -14 3 -7 0 -19 -6 -26 -9 -10 -9 -11 3 -5 10 6 9 2 -3 -12 -14 -16 -15
-23 -6 -29 8 -5 10 -3 4 6 -5 9 -4 11 4 6 15 -10 3 -29 -15 -22 -16 6 -16 7
-17 -56 -1 -40 -4 -45 -17 -35 -11 9 -10 5 3 -15 11 -17 13 -29 6 -33 -5 -4
-7 -16 -4 -28 2 -12 2 -16 -1 -9 -3 6 -11 9 -16 6 -7 -5 -8 -2 -4 7 4 8 0 5
-8 -5 -12 -14 -13 -23 -5 -33 9 -10 8 -13 -1 -13 -8 0 -9 -4 -3 -12 10 -14 10
-25 -1 -50 -5 -10 -12 -15 -17 -12 -5 3 -9 0 -9 -6 0 -6 -4 -8 -10 -5 -5 3
-10 1 -10 -4 0 -6 5 -11 11 -11 8 0 8 -4 0 -13 -6 -9 -7 -17 -1 -23 6 -6 4
-19 -4 -36 -8 -15 -13 -28 -13 -30 1 -2 -4 3 -11 12 -11 12 -12 11 -9 -10 3
-14 0 -33 -5 -42 -6 -13 -5 -18 4 -18 9 0 10 -3 2 -8 -6 -4 -10 -15 -8 -25 1
-9 -2 -15 -7 -11 -5 3 -7 10 -4 15 4 5 1 9 -5 9 -7 0 -9 -8 -5 -21 4 -12 3
-19 -1 -16 -5 3 -16 -2 -24 -11 -13 -14 -13 -15 0 -10 10 4 15 -2 16 -18 1
-13 -2 -24 -8 -24 -5 0 -6 5 -2 12 4 7 3 8 -5 4 -9 -6 -9 -12 1 -24 7 -10 8
-14 4 -10 -5 4 -15 0 -23 -10 -9 -10 -12 -11 -7 -2 4 8 3 11 -1 7 -11 -10 -15
-37 -6 -37 4 0 8 -7 8 -15 0 -8 -5 -11 -10 -8 -6 4 -8 -1 -4 -11 5 -11 3 -15
-4 -10 -7 4 -10 1 -7 -7 3 -8 11 -13 17 -11 7 1 10 -2 6 -8 -4 -7 -12 -7 -25
0 -24 13 -40 13 -20 0 13 -9 13 -11 0 -20 -11 -7 -11 -10 -2 -10 7 0 10 -5 7
-10 -4 -6 -12 -7 -18 -3 -7 3 -3 -4 7 -16 17 -19 17 -21 3 -15 -14 5 -16 2
-10 -12 6 -17 5 -17 -10 -6 -14 12 -16 11 -12 -9 5 -23 -12 -52 -24 -44 -4 2
-8 -3 -8 -11 0 -10 4 -11 11 -4 18 18 26 11 9 -9 -9 -11 -20 -18 -24 -16 -4 3
-12 -2 -19 -10 -11 -13 -10 -15 6 -9 18 5 18 5 1 -9 -18 -15 -18 -15 0 -20 14
-4 13 -5 -5 -6 -13 0 -20 -5 -17 -11 4 -6 11 -7 17 -4 7 4 8 2 4 -4 -5 -9 -13
-9 -29 -1 -18 9 -20 9 -10 -1 10 -11 9 -16 -5 -27 -9 -8 -11 -12 -4 -8 6 3 12
1 12 -4 0 -6 -6 -11 -12 -11 -8 0 -4 -8 7 -17 17 -14 18 -15 2 -9 -11 3 -25 0
-33 -8 -16 -17 -19 -30 -4 -21 6 3 7 -1 4 -9 -3 -9 -10 -16 -16 -16 -5 0 -6
-5 -2 -12 4 -7 3 -8 -5 -4 -9 6 -9 12 1 24 11 15 11 15 -3 5 -9 -7 -18 -11
-20 -9 -2 2 -5 -7 -5 -20 -1 -13 2 -24 8 -24 5 0 6 -5 3 -10 -5 -8 -12 -7 -23
2 -14 12 -14 10 -2 -12 12 -22 12 -24 -2 -12 -11 9 -18 10 -23 2 -3 -5 0 -10
7 -10 9 0 9 -3 -2 -10 -11 -7 -11 -10 -2 -10 7 0 10 -5 7 -10 -4 -6 -12 -7
-18 -3 -8 4 -7 1 1 -9 11 -14 10 -16 -5 -13 -27 4 -34 -4 -22 -27 9 -16 8 -19
-2 -13 -9 6 -11 3 -6 -9 4 -10 3 -15 -3 -11 -6 4 -17 0 -25 -9 -18 -17 -20
-30 -3 -20 7 5 8 3 4 -5 -5 -7 -11 -10 -14 -7 -12 13 -50 -35 -44 -56 3 -14 1
-19 -6 -14 -7 4 -12 1 -12 -9 0 -10 -5 -13 -12 -9 -8 5 -7 0 2 -11 12 -15 12
-17 1 -10 -11 6 -13 4 -8 -9 6 -14 4 -15 -14 -5 -13 7 -19 7 -15 1 3 -6 2 -13
-4 -17 -6 -4 -7 -11 -4 -17 5 -7 1 -9 -9 -5 -11 4 -17 1 -17 -7 0 -20 -65 -87
-75 -79 -5 5 -4 1 3 -9 10 -12 10 -18 1 -24 -7 -4 -9 -3 -6 3 4 6 0 13 -8 16
-10 4 -12 1 -8 -10 5 -11 3 -14 -6 -8 -10 6 -11 3 -1 -15 10 -18 9 -21 -1 -15
-9 6 -11 3 -6 -9 5 -12 3 -15 -6 -9 -23 15 -34 11 -31 -12 1 -18 -2 -22 -14
-18 -10 4 -13 2 -8 -5 4 -7 1 -12 -8 -12 -10 0 -13 -6 -10 -15 4 -8 1 -15 -5
-15 -6 0 -11 5 -11 11 0 5 -5 7 -10 4 -6 -4 -8 -11 -5 -16 6 -8 -9 -13 -28
-10 -5 1 -6 -3 -2 -9 3 -6 11 -7 17 -4 7 4 8 2 4 -4 -4 -7 -19 -12 -34 -13
-15 0 -21 -3 -14 -6 6 -2 10 -9 7 -13 -3 -5 -12 -7 -20 -3 -11 3 -13 1 -10
-10 5 -11 0 -14 -19 -12 -15 2 -24 -1 -20 -6 3 -5 0 -9 -5 -9 -6 0 -11 -7 -11
-15 0 -13 -4 -14 -20 -5 -18 10 -19 9 -10 -15 6 -16 6 -24 1 -20 -6 3 -15 -3
-21 -12 -7 -13 -10 -14 -8 -3 2 8 -1 15 -7 15 -5 0 -9 -13 -8 -28 0 -27 0 -27
-19 -10 -18 16 -19 16 -12 -2 5 -12 4 -16 -3 -12 -6 4 -16 0 -23 -8 -11 -13
-10 -14 4 -9 9 3 16 2 16 -3 0 -13 -33 -12 -42 1 -5 7 -8 7 -8 -2 0 -7 -4 -10
-10 -7 -6 3 -7 -1 -4 -10 4 -9 3 -15 -2 -14 -23 4 -36 -2 -31 -15 4 -11 -1
-13 -21 -10 -26 5 -27 5 -7 -11 11 -9 15 -14 9 -11 -7 3 -15 -2 -18 -11 -5
-11 -10 -13 -17 -6 -6 6 -20 8 -31 5 -15 -4 -17 -7 -6 -13 9 -6 7 -9 -9 -9
-12 0 -25 -4 -28 -10 -3 -6 1 -7 12 -4 17 5 17 5 0 -6 -9 -6 -21 -8 -27 -5 -5
3 -7 -4 -5 -16 4 -17 2 -19 -11 -8 -12 10 -19 8 -37 -10 -13 -11 -28 -21 -35
-21 -6 0 -9 -7 -5 -16 5 -14 3 -15 -15 -5 -18 9 -21 9 -16 -3 4 -10 -3 -15
-22 -18 -15 -2 -30 -9 -32 -17 -3 -9 0 -11 8 -6 9 5 11 4 6 -4 -6 -8 -12 -9
-20 -2 -9 7 -16 7 -24 -1 -9 -9 -12 -9 -12 3 -1 9 -7 6 -20 -10 -11 -13 -20
-20 -20 -16 0 3 -8 -1 -17 -11 -17 -17 -18 -17 -22 1 -2 12 -5 14 -11 6 -4 -7
-14 -13 -23 -15 -9 -1 -25 -10 -36 -20 -11 -10 -27 -16 -36 -12 -9 3 -13 2
-10 -4 3 -6 1 -11 -4 -11 -6 -1 -15 -2 -21 -3 -11 -1 -12 -18 -3 -26 4 -3 3 2
-2 10 -5 8 -5 12 0 8 4 -4 17 -3 29 3 18 8 17 7 -3 -8 -31 -22 -64 -25 -56 -4
4 11 0 10 -16 -5 -14 -11 -19 -13 -14 -4 8 13 6 13 -8 1 -9 -7 -14 -17 -11
-22 3 -5 -2 -6 -10 -3 -9 3 -13 11 -9 17 4 6 1 7 -6 2 -9 -5 -10 -10 -2 -18
18 -18 13 -31 -6 -16 -15 12 -16 12 -10 -6 7 -19 6 -19 -7 -2 -9 12 -16 15
-21 7 -5 -8 -11 -7 -23 2 -14 10 -15 10 -5 -2 14 -16 17 -31 6 -29 -21 3 -33
-2 -27 -13 5 -7 3 -8 -7 -2 -20 12 -38 14 -45 3 -4 -6 -10 -6 -18 0 -9 8 -12
5 -11 -10 1 -12 10 -26 21 -31 18 -9 18 -8 -1 7 -20 17 -20 17 2 11 36 -11
112 -13 106 -3 -3 5 7 1 23 -9 25 -16 27 -16 16 -2 -13 16 -11 16 19 8 17 -5
36 -7 40 -4 5 3 9 -1 9 -8 0 -10 2 -10 8 -1 9 14 72 14 90 0 9 -7 11 -6 6 6
-4 11 -1 14 13 11 27 -7 243 -10 243 -4 0 4 16 4 35 2 21 -3 42 1 52 9 11 10
14 10 9 2 -5 -9 0 -12 18 -11 15 1 26 5 26 8 0 3 20 6 44 5 24 0 42 3 39 8 -2
4 7 5 21 1 13 -3 30 -2 37 2 21 13 120 13 113 0 -3 -6 1 -3 9 6 10 13 16 15
25 6 9 -9 12 -9 12 2 0 7 2 11 5 8 9 -8 -6 -38 -16 -32 -5 3 -13 -5 -18 -18
-6 -13 -10 -18 -10 -12 -1 6 -8 11 -16 11 -8 0 -12 -4 -9 -9 5 -7 -19 -13 -40
-9 -5 1 -3 -6 5 -15 12 -16 12 -17 -3 -11 -10 3 -18 2 -18 -4 0 -6 -5 -7 -10
-4 -6 3 -13 -1 -16 -9 -3 -9 -10 -14 -14 -11 -5 3 -16 -2 -24 -11 -9 -8 -16
-13 -16 -9 0 3 -9 1 -20 -5 -12 -7 -18 -16 -13 -23 4 -7 -2 -5 -12 3 -10 8
-16 11 -13 5 3 -5 0 -16 -8 -23 -11 -10 -14 -10 -14 0 0 7 -7 2 -16 -10 -13
-19 -18 -21 -32 -10 -13 11 -14 11 -8 0 6 -9 3 -12 -10 -10 -11 2 -18 -2 -17
-8 1 -7 -6 -10 -16 -7 -10 2 -24 -1 -32 -9 -15 -14 -35 -19 -81 -22 -20 -1
-24 -4 -16 -14 8 -9 7 -11 -7 -6 -12 5 -16 4 -12 -3 4 -6 -2 -13 -13 -16 -13
-3 -18 -1 -13 6 5 8 2 8 -8 0 -9 -7 -26 -14 -40 -17 -13 -2 -23 -9 -22 -15 2
-5 -3 -8 -11 -5 -8 3 -17 0 -21 -6 -6 -9 -10 -9 -16 1 -8 11 -13 9 -29 -10
-12 -14 -20 -18 -21 -10 0 8 -5 3 -10 -11 -8 -20 -12 -22 -19 -10 -9 13 -10
13 -10 0 0 -13 -1 -13 -10 0 -9 13 -14 11 -35 -12 -28 -32 -37 -35 -28 -10 4
12 -1 10 -15 -7 -12 -13 -22 -20 -22 -14 0 5 -7 10 -15 10 -8 0 -12 -4 -10 -8
3 -3 -5 -9 -17 -12 -18 -5 -19 -8 -8 -22 7 -9 9 -15 4 -14 -5 1 -11 0 -14 -1
-16 -6 -52 -5 -56 2 -3 4 -13 4 -23 -2 -10 -5 -22 -6 -26 -2 -5 4 -5 -2 -1
-12 6 -17 5 -17 -11 -5 -9 8 -14 9 -10 2 4 -6 3 -14 -3 -18 -5 -3 -10 -1 -10
5 0 6 -8 4 -17 -6 -17 -16 -18 -16 -21 -1 -3 15 -5 16 -19 1 -13 -13 -17 -13
-24 -2 -7 10 -9 9 -9 -4 0 -24 -40 -45 -51 -27 -6 11 -9 10 -15 -4 -5 -15 -9
-15 -22 -5 -12 10 -16 10 -19 0 -3 -6 -9 -10 -14 -6 -8 5 -13 -10 -10 -29 1
-5 -3 -6 -9 -2 -6 3 -8 10 -5 15 3 4 -3 7 -12 5 -10 -1 -17 -8 -15 -15 2 -8
-5 -9 -19 -5 -12 4 -19 3 -16 -2 3 -5 -7 -7 -24 -5 -17 3 -29 0 -29 -7 0 -6
-3 -10 -7 -10 -20 3 -34 -2 -28 -10 3 -5 0 -13 -6 -17 -7 -4 -9 -3 -6 3 4 6 0
14 -9 17 -8 3 -12 2 -9 -4 4 -6 -7 -10 -25 -10 -18 0 -29 -4 -25 -10 3 -6 -1
-7 -9 -4 -9 3 -16 1 -16 -6 0 -6 -5 -8 -10 -5 -6 4 -18 1 -27 -7 -14 -11 -16
-11 -9 2 5 9 2 8 -7 -2 -10 -13 -16 -15 -25 -6 -9 9 -12 9 -12 -1 0 -8 -7 -11
-20 -8 -12 3 -20 0 -20 -8 0 -9 -8 -11 -22 -7 -16 4 -20 2 -16 -9 5 -12 -2
-14 -30 -11 -24 3 -37 0 -43 -11 -6 -9 -17 -13 -29 -10 -11 3 -26 0 -33 -6 -8
-6 -17 -8 -20 -4 -4 3 -7 1 -7 -5 0 -7 -9 -11 -19 -9 -11 1 -20 -2 -20 -7 -1
-15 80 -10 90 5 5 8 9 9 9 3 0 -8 26 -11 78 -9 42 1 77 3 77 5 0 1 35 3 78 4
50 2 77 -1 77 -8 0 -8 3 -8 8 0 4 5 30 11 57 12 41 1 126 8 170 14 6 1 21 -2
34 -6 18 -6 22 -5 15 5 -6 12 -5 12 9 0 9 -7 17 -9 17 -4 0 5 24 9 53 8 28 -1
58 4 66 9 11 8 13 8 8 0 -4 -7 0 -15 9 -18 8 -3 13 -2 10 3 -9 14 20 21 33 8
6 -6 11 -7 11 -1 0 5 21 9 47 8 27 -1 51 4 55 10 5 7 8 3 8 -9 0 -17 2 -17 10
-5 11 17 30 20 46 8 7 -5 18 -2 28 7 9 9 16 11 16 5 0 -7 5 -8 17 -1 12 7 21
5 30 -7 12 -15 12 -15 7 -1 -4 13 0 15 22 11 16 -3 25 -1 21 5 -3 5 6 10 21
10 59 1 73 3 67 13 -3 6 -1 10 4 10 6 0 11 -6 11 -12 0 -10 2 -10 9 0 4 8 11
13 15 13 20 -3 26 0 20 12 -5 7 -1 7 10 -2 14 -12 19 -12 26 -1 4 7 15 10 24
7 11 -4 16 -1 17 11 0 10 3 12 6 5 2 -7 11 -13 19 -13 10 0 12 5 8 13 -6 9 -5
9 7 0 11 -9 18 -8 31 1 10 7 16 15 14 17 -3 2 11 4 30 3 19 -1 34 3 34 8 0 7
5 6 14 -1 11 -9 15 -8 20 6 6 15 8 15 16 3 7 -10 10 -11 10 -2 0 6 3 11 7 11
18 -3 34 2 30 8 -3 5 9 9 26 9 66 4 95 9 89 18 -3 5 2 7 11 3 10 -3 17 -2 17
2 0 5 9 7 20 4 11 -3 20 0 20 6 0 6 7 8 17 4 11 -4 14 -3 9 5 -4 7 -2 10 7 6
7 -2 26 0 41 6 21 8 26 7 21 -3 -4 -6 -1 -5 7 3 15 18 68 22 68 6 0 -6 4 -4 9
4 6 8 8 17 6 21 -3 3 7 4 20 1 14 -2 31 1 39 7 7 6 21 9 30 5 9 -4 16 -1 16 6
0 9 4 9 17 -1 11 -10 14 -10 9 -1 -5 8 1 12 18 12 14 0 26 4 26 9 0 4 11 6 25
3 16 -3 25 0 25 8 0 10 3 10 15 0 12 -10 16 -9 21 3 3 9 12 13 19 11 7 -3 16
-1 20 5 3 6 11 11 16 11 6 0 7 -4 4 -10 -11 -18 4 -11 26 13 12 12 19 16 15
10 -10 -18 0 -16 31 5 18 11 24 12 19 4 -7 -12 -4 -12 15 -1 29 15 59 19 59 7
0 -5 4 -7 9 -4 5 3 7 16 4 29 -4 20 -3 20 7 4 6 -9 16 -15 21 -12 5 4 7 10 4
15 -3 5 -1 11 5 15 5 3 10 1 10 -6 0 -8 5 -7 17 2 9 8 14 9 10 3 -4 -8 2 -11
17 -10 13 0 23 3 20 5 -2 2 4 10 14 18 13 10 13 12 2 10 -8 -2 -12 -2 -7 0 4
3 5 8 3 12 -3 4 4 7 14 7 10 0 16 -4 14 -8 -10 -16 17 -7 36 12 11 11 20 17
20 13 0 -4 6 1 14 12 8 12 20 16 34 13 14 -4 19 -2 15 7 -4 11 35 43 45 37 8
-6 22 0 18 7 -4 5 7 15 24 23 16 7 30 17 30 22 0 4 9 6 19 3 15 -3 18 -1 14
11 -4 8 -2 13 3 10 11 -7 35 17 26 26 -3 4 1 4 11 0 11 -4 24 1 35 12 9 11 24
20 32 22 8 2 20 10 26 17 6 8 14 12 17 9 3 -4 13 0 21 9 8 8 12 18 8 22 -4 4
-2 6 3 5 19 -4 38 0 32 6 -4 4 21 21 55 38 33 17 63 39 66 49 4 15 7 16 14 5
7 -10 10 -10 19 5 5 9 16 17 22 17 7 0 19 9 27 20 10 14 17 17 27 8 11 -8 12
-7 7 6 -4 9 -3 16 2 15 17 -4 49 14 72 40 13 14 20 20 16 12 -8 -16 9 -8 38
17 10 8 23 12 31 9 8 -3 14 1 14 9 0 9 -6 13 -14 10 -8 -4 -11 -1 -8 5 4 6 13
8 21 5 8 -3 23 3 34 14 11 11 20 17 20 13 0 -4 7 2 16 13 8 10 12 12 8 4 -7
-12 -5 -13 8 -3 8 7 19 9 24 5 4 -4 2 1 -6 11 -7 10 -9 17 -4 16 20 -3 35 2
29 10 -3 6 4 15 15 21 11 6 18 15 15 19 -2 5 3 8 13 7 9 0 16 5 14 12 -1 6 5
12 13 12 8 0 19 9 25 20 6 11 14 19 18 17 4 -1 24 15 45 36 21 20 43 37 48 37
6 0 7 5 4 10 -3 6 -1 10 5 10 6 0 18 7 27 15 8 8 20 12 26 8 7 -4 6 1 -2 11
-8 9 -10 16 -5 15 22 -4 33 2 39 21 3 11 9 19 13 19 20 -3 32 2 27 11 -3 6 -2
10 4 10 17 0 73 59 66 70 -3 6 1 7 9 4 9 -4 18 1 22 10 3 9 10 13 15 10 5 -3
9 2 9 10 0 8 9 18 20 21 11 3 20 11 20 16 0 6 4 8 9 4 5 -3 12 4 16 15 3 11
13 20 21 20 8 0 13 4 10 8 -3 5 4 16 15 25 10 9 19 14 19 11 0 -2 11 6 25 20
13 13 33 27 44 31 13 4 18 11 14 22 -5 12 -3 14 8 8 11 -7 11 -5 -1 10 -8 10
-10 16 -3 12 7 -4 14 1 18 12 3 11 13 22 21 25 8 3 12 10 9 16 -3 5 1 10 11
10 14 0 15 2 3 17 -8 9 -9 14 -3 10 14 -8 38 18 30 31 -3 5 6 19 19 30 14 12
25 27 25 33 0 5 5 7 11 3 7 -4 10 -1 7 7 -3 8 0 19 6 26 29 33 34 41 29 47 -4
3 -1 6 5 6 7 0 12 5 12 12 0 6 9 21 19 32 11 12 21 28 23 36 3 17 37 50 50 50
5 0 7 4 4 9 -9 14 5 43 19 38 6 -3 12 1 12 9 0 7 -5 10 -10 7 -6 -3 -7 -1 -3
5 4 7 14 12 22 12 8 0 12 5 9 10 -3 6 1 13 10 16 13 6 14 8 3 15 -10 7 -11 9
0 9 7 0 10 4 7 10 -4 6 1 7 12 3 16 -6 16 -5 4 10 -12 15 -12 17 3 11 13 -5
17 -2 14 12 -2 13 3 19 14 18 11 -1 15 5 13 17 -2 11 1 19 6 19 6 0 8 3 6 8
-6 9 19 33 27 25 3 -3 3 4 1 16 -2 12 0 19 6 16 5 -4 14 7 20 24 6 17 15 28
20 25 5 -3 9 4 9 15 0 12 5 21 10 21 6 0 10 5 10 10 0 6 9 19 20 30 12 12 18
25 15 30 -4 6 1 13 9 16 9 3 16 12 16 20 0 8 5 14 10 14 6 0 15 11 22 25 6 13
16 21 22 18 6 -4 5 1 -3 10 -9 12 -10 17 -2 17 7 0 10 4 6 9 -3 5 -1 12 5 16
6 4 8 11 5 16 -4 5 -2 9 4 9 5 0 8 11 7 25 -2 13 0 22 4 20 10 -6 17 14 15 43
-1 13 4 22 12 22 8 0 11 5 8 10 -3 6 0 10 7 10 10 0 9 3 -2 11 -11 8 -12 12
-2 16 6 2 12 13 12 23 0 10 6 21 13 23 9 4 8 6 -2 6 -11 1 -11 4 0 17 13 15
18 30 23 66 1 9 9 24 17 34 12 16 12 17 -1 10 -13 -7 -13 -6 0 6 8 7 16 22 18
33 1 11 3 28 4 37 1 9 5 15 9 12 4 -2 10 0 14 6 3 5 1 10 -6 10 -8 0 -7 6 3
18 9 9 14 27 12 40 -2 12 1 22 7 22 5 0 7 5 4 10 -3 6 -1 10 4 10 6 0 11 5 11
11 0 5 -5 7 -11 4 -6 -4 -5 2 3 14 7 12 16 21 21 21 4 0 6 4 3 8 -2 4 -1 14 3
21 6 10 11 9 24 -3 10 -11 18 -12 22 -6 5 8 11 8 20 0 10 -8 15 -7 19 2 4 9 5
9 5 -2 -3 -36 1 -41 22 -35 15 5 19 4 15 -4 -8 -13 21 -10 43 3 10 6 12 5 7
-3 -15 -24 3 -46 38 -46 19 0 33 2 30 4 -2 2 4 10 14 18 9 8 12 12 5 9 -7 -4
-9 1 -5 16 3 12 7 17 10 10 2 -6 8 -12 13 -12 6 0 7 5 4 10 -3 6 -1 10 6 10 7
0 10 3 6 6 -3 3 6 17 21 31 15 13 20 21 12 17 -11 -5 -10 -2 3 13 9 11 14 23
10 27 -5 4 -3 7 2 6 21 -5 36 0 30 10 -3 6 -2 10 4 10 5 0 12 9 16 19 4 12 12
18 21 14 10 -3 12 0 9 10 -4 8 1 17 10 21 10 3 15 13 12 21 -4 9 -1 12 9 8 8
-3 14 -2 12 3 -1 5 8 25 20 44 12 19 22 30 22 25 0 -6 11 -11 24 -11 14 0 22
4 20 8 -3 5 -10 5 -16 2 -7 -4 -8 -2 -4 4 9 15 36 4 36 -15 0 -10 7 -14 20
-10 11 3 20 2 20 -3 0 -13 29 -20 36 -8 4 6 3 8 -4 4 -6 -3 -13 -3 -16 2 -2 4
6 8 19 8 13 0 23 -4 22 -10 -1 -5 9 -15 21 -22 15 -7 20 -14 13 -18 -6 -4 -11
-14 -11 -22 0 -9 5 -12 12 -8 6 4 8 3 5 -3 -4 -6 -19 -8 -34 -6 -16 3 -23 1
-18 -4 12 -9 13 -28 3 -39 -5 -4 -8 -1 -8 7 0 12 -2 12 -10 -1 -6 -9 -5 -17 3
-22 8 -5 6 -8 -6 -8 -10 0 -16 -4 -13 -8 6 -11 -4 -24 -34 -46 -20 -15 -21
-17 -5 -12 17 5 18 4 4 -6 -8 -7 -18 -21 -22 -30 -3 -10 -11 -18 -17 -18 -6 0
-8 -4 -5 -10 3 -5 1 -10 -6 -10 -7 0 -9 -3 -6 -7 4 -3 0 -11 -9 -17 -8 -6 -16
-21 -17 -33 0 -12 -5 -19 -9 -17 -4 3 -8 -2 -8 -10 0 -9 -5 -16 -11 -16 -6 0
-9 -7 -6 -15 4 -8 1 -17 -5 -21 -7 -5 -8 -2 -3 6 5 9 4 11 -3 6 -7 -4 -12 -13
-12 -20 0 -8 -7 -19 -15 -26 -9 -7 -14 -19 -11 -26 3 -7 -4 -23 -16 -36 l-20
-23 17 29 c9 16 12 25 6 22 -15 -10 -44 -67 -37 -73 3 -4 -2 -12 -12 -20 -9
-8 -11 -11 -3 -7 10 5 12 3 7 -5 -5 -7 -14 -10 -22 -7 -11 4 -12 2 -4 -14 6
-11 6 -21 1 -24 -5 -4 -12 0 -14 6 -3 8 -6 6 -6 -5 -1 -10 -5 -16 -9 -13 -5 3
-9 -1 -9 -9 0 -8 5 -11 11 -8 6 4 2 -4 -9 -17 -13 -15 -15 -21 -5 -16 8 4 7 1
-3 -7 -21 -17 -61 -90 -44 -80 7 4 2 -5 -10 -21 -12 -15 -19 -34 -16 -42 3 -8
0 -14 -7 -14 -7 0 -10 -7 -6 -15 4 -11 0 -15 -11 -13 -9 2 -17 -5 -18 -15 -2
-9 1 -15 6 -11 5 3 6 10 3 16 -5 7 -2 8 6 3 10 -6 9 -12 -8 -25 -15 -13 -18
-20 -9 -29 8 -8 6 -11 -7 -11 -16 0 -16 -2 -6 -16 8 -8 9 -14 4 -13 -23 4 -33
-2 -27 -18 4 -11 3 -14 -5 -9 -11 6 -17 -21 -9 -40 1 -4 -8 -10 -20 -15 -13
-5 -20 -15 -19 -26 2 -10 -4 -24 -13 -31 -9 -7 -11 -12 -6 -11 25 3 26 -3 1
-22 -18 -14 -26 -28 -23 -40 3 -12 0 -19 -10 -19 -12 0 -12 -2 1 -16 18 -17
21 -28 7 -19 -5 3 -12 1 -16 -5 -3 -5 -1 -10 5 -10 6 0 8 -5 5 -10 -5 -8 -11
-8 -20 0 -11 9 -12 7 -8 -9 3 -12 1 -21 -4 -21 -5 0 -7 -14 -5 -31 3 -20 1
-30 -6 -26 -14 9 -35 -20 -28 -38 3 -8 0 -15 -6 -15 -6 0 -5 -6 3 -17 10 -12
11 -15 1 -9 -9 6 -11 1 -8 -18 4 -24 3 -25 -17 -14 -20 10 -21 10 -8 -5 9 -11
10 -17 2 -17 -6 0 -11 -7 -11 -16 0 -8 -5 -12 -11 -8 -6 3 -3 -5 6 -20 12 -18
14 -26 5 -26 -10 0 -10 -3 0 -14 10 -13 7 -14 -17 -10 -20 3 -24 2 -13 -5 13
-9 12 -11 -1 -16 -11 -4 -15 -16 -13 -37 2 -17 -2 -38 -9 -46 -9 -13 -9 -14 1
-8 6 4 12 3 12 -2 0 -14 -28 -35 -38 -28 -5 3 -9 -1 -9 -9 0 -8 4 -15 9 -15 4
0 8 -5 8 -11 0 -6 -8 -8 -17 -5 -15 5 -15 4 1 -9 11 -8 15 -15 9 -15 -6 0 -14
-7 -17 -16 -3 -8 -2 -12 3 -9 5 3 13 1 16 -5 4 -6 3 -10 -2 -9 -20 3 -34 -2
-28 -11 3 -6 -1 -13 -10 -16 -13 -6 -14 -8 -3 -15 7 -5 8 -9 3 -9 -12 0 -13
-40 -1 -58 9 -15 -6 -16 -21 -1 -8 8 -13 7 -18 -2 -5 -7 -4 -10 2 -6 6 4 16 0
23 -8 9 -11 10 -15 1 -15 -18 0 -38 -23 -33 -38 2 -7 9 -9 14 -6 7 4 8 2 4 -4
-4 -7 -14 -12 -22 -12 -8 0 -12 -5 -9 -10 4 -6 10 -8 15 -5 4 3 6 -4 3 -15 -3
-11 -10 -17 -15 -14 -6 4 -2 -6 8 -22 17 -27 17 -28 1 -15 -15 12 -17 12 -12
-2 4 -9 -2 -21 -15 -30 -20 -14 -21 -16 -3 -20 14 -4 14 -5 2 -6 -12 -1 -15
-9 -13 -32 2 -17 7 -35 10 -41 4 -6 2 -8 -4 -4 -15 9 -21 -15 -10 -44 l9 -24
-22 19 -22 20 14 -22 c11 -18 11 -25 1 -35 -11 -11 -12 -9 -7 7 5 16 5 17 -3
5 -8 -10 -8 -18 0 -27 7 -9 7 -13 -2 -13 -10 0 -10 -3 0 -15 10 -12 9 -15 -6
-15 -17 0 -17 -1 2 -16 10 -8 13 -13 7 -9 -17 8 -17 -7 -1 -24 11 -11 10 -13
-3 -8 -9 3 -16 0 -16 -8 0 -8 3 -13 6 -12 6 2 11 -7 11 -18 0 -3 -10 0 -22 6
-20 11 -21 10 -11 -3 10 -11 10 -17 0 -28 -10 -10 -8 -12 8 -6 18 5 18 5 3 -7
-10 -8 -16 -26 -14 -50 1 -20 -3 -37 -8 -37 -4 0 -3 -6 3 -14 10 -11 8 -17 -6
-25 -12 -7 -13 -10 -4 -11 7 0 11 -6 8 -15 -4 -8 -1 -17 4 -21 6 -4 3 -14 -10
-25 -12 -12 -18 -26 -14 -36 4 -11 3 -14 -5 -9 -8 5 -12 -5 -12 -33 0 -22 5
-43 12 -47 8 -5 6 -10 -5 -19 -12 -9 -14 -19 -7 -48 7 -31 5 -37 -9 -37 -12 0
-13 -2 -3 -9 8 -4 12 -17 11 -27 -2 -11 1 -25 5 -33 7 -11 5 -13 -5 -9 -10 4
-15 -1 -15 -13 0 -11 5 -18 11 -15 6 2 11 -5 11 -15 0 -11 -4 -15 -11 -9 -6 5
-17 5 -25 0 -13 -8 -12 -10 2 -10 22 0 32 -18 19 -34 -6 -7 -8 -16 -4 -20 4
-4 0 -4 -8 -1 -12 5 -16 -1 -17 -25 0 -20 3 -28 11 -24 7 3 3 -2 -7 -10 -15
-12 -16 -16 -5 -16 11 0 12 -2 0 -9 -10 -7 -11 -13 -2 -30 9 -16 9 -21 -1 -22
-7 0 -4 -4 7 -9 17 -7 17 -9 3 -9 -10 -1 -18 -6 -18 -12 0 -5 4 -8 8 -5 5 3 9
-1 9 -9 0 -8 -3 -12 -7 -10 -11 7 -6 -69 5 -77 6 -5 4 -8 -5 -8 -13 0 -13 -1
0 -11 11 -8 12 -12 3 -16 -9 -3 -10 -10 -3 -24 8 -14 7 -19 -1 -19 -8 0 -7 -5
2 -17 10 -11 10 -14 2 -9 -7 4 -13 3 -13 -3 0 -5 8 -15 17 -20 17 -10 16 -10
-2 -11 -17 0 -17 -2 -5 -10 8 -5 10 -10 4 -10 -15 0 -10 -40 7 -51 11 -7 10
-9 -6 -9 -17 0 -17 -2 -5 -10 8 -5 10 -10 4 -10 -14 0 -13 -32 1 -42 7 -5 6
-8 0 -8 -11 0 -13 -45 -3 -55 8 -9 -4 -65 -13 -59 -5 3 -9 0 -9 -5 0 -6 8 -11
18 -11 13 0 14 -2 3 -9 -11 -7 -11 -9 0 -14 10 -4 10 -6 2 -6 -9 -1 -10 -8 -3
-27 8 -21 8 -25 -3 -21 -8 3 -14 -1 -14 -9 0 -7 4 -11 8 -8 4 2 10 0 14 -6 3
-5 0 -10 -7 -10 -9 0 -9 -3 2 -10 8 -5 11 -10 5 -10 -5 0 -9 -17 -8 -37 4 -72
4 -88 2 -133 -1 -34 2 -44 12 -42 9 1 8 -3 -4 -12 -17 -13 -16 -14 2 -19 11
-3 22 -1 25 4 2 5 3 4 2 -3 -2 -7 -12 -12 -22 -11 -16 2 -15 1 4 -9 12 -6 22
-15 22 -21 0 -5 -8 -3 -17 4 -15 12 -16 12 -10 -5 6 -14 5 -16 -5 -8 -10 8
-13 1 -13 -33 1 -24 4 -47 7 -51 4 -3 4 -12 1 -20 -3 -8 0 -14 5 -14 6 0 9 9
7 20 -2 11 1 20 7 20 5 0 8 -6 5 -13 -3 -8 -1 -20 3 -28 5 -8 4 -19 -3 -28 -9
-12 -9 -13 1 -7 17 10 15 -4 -5 -28 -17 -20 -17 -20 1 -6 18 14 19 13 14 -17
-3 -19 -1 -30 5 -26 6 4 7 1 3 -6 -5 -7 -15 -10 -23 -7 -8 3 -11 1 -8 -4 3 -6
16 -10 28 -11 21 0 21 -1 2 -9 -13 -6 -15 -9 -5 -9 12 -1 12 -3 2 -10 -11 -7
-10 -9 3 -15 9 -3 14 -10 10 -15 -3 -5 -1 -12 5 -16 6 -4 8 -11 5 -16 -4 -5 1
-12 10 -15 21 -9 38 -41 25 -49 -6 -4 -10 -3 -9 2 3 19 -2 33 -12 33 -8 0 -8
-5 1 -15 7 -8 9 -15 4 -15 -5 -1 5 -12 21 -26 17 -15 24 -23 18 -20 -9 5 -11
2 -7 -8 3 -9 9 -15 12 -14 4 1 18 -4 32 -11 l25 -12 -24 5 -25 5 25 -23 c13
-13 28 -21 33 -18 5 3 7 -2 3 -11 -3 -9 1 -21 11 -29 15 -12 16 -11 3 7 -7 11
-2 8 12 -7 28 -31 42 -35 51 -15 3 6 3 2 0 -10 -3 -16 1 -25 18 -34 13 -7 30
-20 38 -29 8 -9 27 -16 41 -16 20 1 25 -2 21 -14 -4 -12 -2 -12 8 -3 9 8 22 7
53 -7 33 -15 45 -16 56 -7 12 9 13 9 7 0 -7 -13 6 -16 76 -17 15 0 25 -4 22
-8 -3 -4 0 -8 5 -8 6 0 10 -5 9 -12 -2 -7 3 -12 10 -13 12 0 17 -10 9 -23 -2
-4 -2 0 0 8 3 12 2 13 -9 2 -11 -11 -10 -16 6 -28 12 -8 15 -14 7 -14 -10 0
-11 -3 -3 -13 7 -8 7 -18 2 -27 -12 -19 -13 -33 -1 -25 11 6 7 -28 -5 -47 -4
-6 -3 -8 2 -5 6 3 9 -7 7 -24 -2 -16 -4 -42 -6 -59 -2 -17 2 -30 7 -30 8 0 8
-3 0 -8 -5 -4 -10 -17 -10 -29 0 -13 -3 -23 -7 -23 -14 1 -35 -25 -29 -35 9
-15 10 -45 0 -39 -4 3 -8 -1 -8 -9 0 -10 -7 -14 -22 -10 -19 4 -20 3 -8 -6 13
-10 13 -11 0 -11 -8 -1 1 -8 20 -17 19 -9 38 -15 42 -15 4 1 4 -6 1 -16 -6
-14 -4 -15 9 -4 12 10 18 9 28 -3 7 -9 19 -14 27 -11 8 3 11 1 8 -4 -3 -6 3
-10 15 -10 12 0 19 -4 16 -8 -5 -8 62 -38 77 -34 4 1 7 -3 7 -9 0 -5 13 -15
30 -20 18 -7 27 -15 23 -22 -4 -7 2 -5 12 3 11 9 16 10 11 3 -7 -12 11 -18 37
-14 5 1 6 -3 2 -9 -3 -5 1 -10 9 -10 9 0 16 -4 16 -8 0 -5 11 -14 25 -20 31
-14 46 -15 25 -2 -10 7 -11 10 -2 10 7 0 15 -7 18 -15 4 -8 10 -12 15 -9 5 3
9 0 9 -5 0 -6 5 -11 11 -11 7 0 18 -8 26 -17 8 -10 11 -11 7 -3 -6 12 -3 11
16 -3 14 -9 36 -23 50 -29 14 -7 33 -18 43 -26 9 -9 17 -11 17 -6 0 5 4 3 9
-4 4 -7 17 -14 29 -15 11 0 18 -5 16 -9 -5 -7 19 -13 39 -9 5 1 6 -3 2 -9 -3
-5 0 -10 9 -10 8 0 16 -4 18 -10 2 -5 15 -11 30 -12 15 -1 30 -8 33 -16 3 -8
10 -10 17 -6 10 6 10 5 1 -7 -10 -13 -8 -15 17 -13 19 1 36 -6 51 -22 12 -13
26 -21 31 -18 5 4 21 -5 35 -17 15 -13 22 -17 18 -10 -5 9 5 5 22 -7 17 -12
37 -22 45 -22 14 -1 49 -24 45 -31 -1 -2 0 -3 2 -1 2 1 13 -6 24 -15 10 -10
21 -17 23 -15 2 1 14 2 27 1 15 0 17 -2 7 -7 -10 -4 -1 -10 25 -18 22 -6 39
-16 38 -21 -1 -5 7 -10 18 -11 41 -4 48 -6 45 -11 -2 -3 2 -12 10 -18 8 -8 15
-9 19 -3 3 6 18 -1 33 -15 15 -14 33 -23 41 -20 7 3 25 -7 38 -22 14 -16 22
-21 17 -13 -6 12 -5 13 8 3 8 -7 19 -9 23 -5 5 4 5 1 1 -5 -4 -8 -1 -13 9 -13
10 0 13 -5 9 -12 -4 -6 -3 -8 3 -5 5 3 26 -3 46 -13 21 -11 37 -17 37 -14 0 3
7 -2 16 -11 9 -9 23 -14 31 -11 8 3 11 1 8 -4 -3 -6 1 -10 10 -10 9 0 14 -4
10 -9 -3 -6 4 -8 15 -6 11 2 20 -1 20 -7 0 -6 3 -9 6 -5 4 3 13 -1 21 -9 8 -8
19 -12 24 -9 5 4 9 1 9 -4 0 -6 9 -11 21 -11 11 0 17 -5 14 -10 -3 -6 2 -10
12 -10 10 0 29 -9 43 -20 14 -11 31 -20 38 -20 6 0 12 -5 12 -11 0 -6 9 -9 20
-6 11 3 18 1 15 -3 -5 -8 33 -26 48 -22 4 1 7 -2 7 -8 0 -5 9 -10 21 -10 11 0
17 -4 14 -10 -5 -9 9 -15 18 -7 2 1 12 -6 22 -16 9 -10 24 -16 31 -13 7 3 20
-4 28 -15 8 -12 26 -22 40 -23 19 -1 26 -7 26 -21 0 -17 2 -17 10 -5 6 10 10
11 10 3 0 -7 6 -13 14 -13 8 0 17 -6 19 -12 4 -9 6 -8 7 2 0 10 6 6 15 -10 8
-14 14 -19 15 -12 0 10 4 10 16 -2 8 -9 22 -16 30 -16 8 0 14 -6 14 -12 0 -9
4 -8 10 2 8 13 10 12 10 -4 0 -11 3 -16 7 -13 3 4 12 -1 19 -11 9 -11 13 -12
14 -4 0 9 8 8 28 -5 15 -10 30 -22 33 -27 4 -5 12 -5 19 -1 8 5 11 4 6 -3 -4
-6 3 -12 16 -14 13 -2 22 -9 21 -15 -1 -7 6 -9 19 -5 15 4 19 2 14 -7 -5 -8
-3 -12 5 -10 28 3 40 -1 33 -13 -4 -6 -3 -8 4 -4 6 3 14 1 17 -5 4 -5 12 -8
19 -6 16 6 50 -19 42 -31 -3 -6 2 -8 14 -5 11 3 20 0 20 -6 0 -6 7 -11 15 -11
8 0 15 -5 15 -11 0 -7 10 -9 25 -7 13 3 22 1 19 -3 -3 -5 2 -9 11 -9 10 0 13
-5 9 -12 -4 -7 -4 -10 0 -6 4 3 19 0 33 -7 15 -8 31 -11 36 -8 6 3 7 1 3 -5
-4 -7 -1 -12 8 -12 9 0 16 -5 16 -11 0 -5 5 -7 10 -4 6 3 10 1 10 -4 0 -6 5
-11 11 -11 5 0 7 6 3 13 -5 8 -3 8 9 -2 9 -7 14 -17 11 -22 -3 -5 2 -6 10 -3
9 3 16 1 16 -6 0 -6 4 -9 9 -6 5 4 11 2 13 -4 2 -6 13 -12 24 -14 24 -5 61
-25 82 -44 7 -7 18 -10 23 -7 5 4 9 1 9 -4 0 -6 8 -11 19 -11 10 0 24 -7 31
-15 7 -9 19 -14 26 -11 7 3 15 -2 18 -11 4 -9 12 -13 23 -9 10 4 14 4 10 0 -8
-8 55 -44 66 -37 4 2 7 0 7 -5 0 -5 15 -15 33 -22 17 -7 43 -23 56 -34 14 -12
21 -14 16 -6 -6 10 -1 9 13 -3 12 -11 26 -16 33 -11 7 4 10 3 5 -4 -4 -6 3
-12 16 -14 13 -2 22 -9 21 -15 -1 -6 5 -10 15 -9 22 4 52 -15 45 -28 -3 -5 -1
-6 5 -2 6 3 13 2 17 -4 4 -6 11 -8 16 -5 5 4 9 0 9 -8 0 -9 9 -14 23 -13 12 0
21 -4 20 -10 -1 -8 6 -10 19 -6 14 3 19 1 14 -6 -6 -11 12 -17 37 -13 4 0 7
-3 7 -9 0 -5 7 -10 17 -10 9 0 13 -3 10 -7 -8 -7 38 -33 59 -33 8 0 14 -5 14
-11 0 -6 9 -9 20 -6 11 3 18 1 15 -3 -5 -8 33 -26 48 -22 4 1 7 -3 7 -9 0 -6
7 -9 15 -5 8 3 14 0 12 -7 -1 -6 8 -13 21 -15 12 -2 22 -8 22 -13 0 -6 4 -8 9
-5 5 3 12 -1 15 -10 4 -9 9 -14 12 -11 9 9 65 -14 58 -24 -3 -5 3 -6 12 -2 13
5 15 3 9 -8 -4 -8 -5 -11 0 -7 4 4 15 2 23 -5 13 -10 15 -9 8 3 -4 8 -1 7 7
-3 11 -14 16 -15 20 -5 3 8 6 5 6 -6 1 -11 4 -16 7 -13 4 4 19 -2 34 -13 16
-11 33 -20 39 -20 6 0 33 -16 60 -35 33 -23 51 -30 55 -22 2 7 5 4 5 -5 1 -10
7 -18 14 -18 6 0 25 -7 41 -15 15 -8 32 -12 37 -9 5 3 9 0 9 -6 0 -6 5 -8 10
-5 6 3 13 -1 16 -10 4 -9 12 -14 19 -11 8 3 16 -2 19 -10 3 -9 10 -13 15 -9 5
3 12 1 16 -5 4 -6 11 -8 16 -5 5 4 9 1 9 -5 0 -6 5 -8 10 -5 5 3 10 -2 11 -12
0 -10 3 -13 6 -6 3 10 8 9 20 -2 8 -8 19 -13 24 -10 5 4 9 1 9 -5 0 -10 48
-35 63 -32 4 1 7 -2 7 -7 0 -5 11 -12 24 -15 14 -3 32 -14 42 -23 9 -10 24
-18 33 -18 9 0 15 -6 13 -13 -1 -8 2 -11 7 -8 5 4 13 1 16 -5 4 -5 13 -8 21
-5 8 3 14 1 14 -5 0 -6 7 -9 15 -5 8 3 15 1 15 -5 0 -6 7 -9 14 -6 9 4 13 1
10 -6 -3 -8 14 -20 41 -31 25 -11 45 -22 45 -27 0 -4 11 -6 25 -5 17 2 26 -3
31 -17 5 -16 8 -17 15 -6 7 11 9 9 9 -6 0 -17 2 -17 10 -5 8 13 10 12 10 -2 0
-11 8 -18 18 -18 10 0 23 -5 30 -12 9 -9 12 -8 12 4 0 9 6 19 13 21 9 4 9 6
-1 6 -8 1 -10 6 -6 13 12 19 12 48 0 48 -6 0 -5 5 2 12 13 13 16 32 4 24 -4
-3 -7 33 -6 80 1 55 -3 84 -10 84 -7 0 -6 3 1 8 9 5 12 26 10 60 -2 29 1 52 6
52 6 0 6 5 0 13 -11 14 -11 77 0 95 8 12 2 16 -18 13 -5 -1 -2 5 8 12 9 8 17
19 17 25 0 6 9 17 21 25 11 8 22 22 23 32 3 20 26 36 41 27 5 -3 3 3 -5 13
-14 17 -14 18 8 6 14 -8 22 -8 22 -1 0 6 12 5 30 -5 36 -19 50 -20 25 -1 -18
13 -18 14 8 9 15 -3 27 -10 27 -15 0 -5 5 -6 12 -2 7 4 8 3 4 -5 -4 -6 -11 -9
-16 -6 -5 3 -12 0 -16 -7 -4 -7 -4 -10 1 -6 4 4 22 1 40 -6 29 -12 35 -12 49
2 14 14 15 13 10 -14 -3 -18 -1 -24 4 -16 7 11 12 11 25 -2 14 -15 16 -14 20
2 4 16 5 16 6 0 0 -10 6 -18 12 -18 5 0 7 6 3 13 -4 6 3 2 15 -11 24 -24 41
-31 22 -8 -9 11 -9 16 0 22 7 4 10 3 6 -2 -3 -5 0 -16 6 -25 16 -21 47 -32 48
-16 0 7 4 3 9 -8 5 -11 9 -15 9 -8 1 15 28 11 44 -7 9 -10 9 -11 0 -6 -7 4
-13 3 -13 -2 0 -5 9 -12 20 -15 14 -4 20 0 20 11 0 12 3 13 8 5 4 -7 23 -13
40 -15 25 -2 32 -6 29 -18 -3 -10 3 -16 15 -17 11 -1 16 3 12 10 -3 7 1 4 9
-6 11 -14 16 -15 20 -5 4 10 6 10 6 -1 1 -10 4 -11 15 -2 11 9 16 9 22 0 5 -8
3 -9 -6 -4 -9 5 -11 4 -6 -4 6 -9 11 -9 21 -1 9 8 14 5 18 -11 5 -19 8 -20 22
-9 9 7 15 9 14 4 -4 -21 2 -28 11 -14 8 12 10 12 10 1 0 -10 3 -11 13 -2 11 8
18 6 32 -9 10 -11 22 -17 26 -14 5 3 9 0 9 -5 0 -6 15 -11 33 -11 18 0 39 -6
46 -12 11 -10 13 -10 7 0 -12 21 8 13 22 -9 7 -11 19 -18 27 -15 8 3 17 2 19
-3 3 -4 19 -6 37 -3 24 4 30 2 24 -8 -6 -10 -4 -12 10 -6 14 5 15 4 7 -7 -8
-10 -3 -12 29 -12 21 0 39 -3 39 -7 0 -4 7 -5 15 -1 9 3 23 -3 31 -13 9 -11
12 -12 8 -4 -5 10 -1 9 14 -4 12 -10 36 -18 56 -18 20 0 36 -3 36 -7 0 -11 53
-31 83 -31 20 0 26 4 21 13 -4 7 -3 9 2 4 5 -5 9 -14 9 -20 1 -7 6 -11 13 -9
7 1 12 -4 12 -10 0 -9 4 -8 10 2 7 12 10 12 10 1 0 -8 6 -11 16 -7 8 3 13 2
10 -3 -3 -5 5 -11 19 -13 13 -3 26 0 29 6 2 6 5 3 5 -6 1 -10 6 -18 12 -18 5
0 7 6 3 13 -4 6 2 4 14 -6 12 -11 26 -16 33 -11 8 5 10 3 4 -6 -6 -10 -4 -12
8 -7 9 3 19 2 22 -3 4 -6 11 -10 16 -10 6 0 8 4 5 8 -3 5 1 9 9 9 8 0 12 -4 9
-9 -3 -4 1 -8 10 -8 8 0 17 -6 19 -12 4 -8 6 -7 6 3 1 9 8 20 17 23 10 4 14
14 11 26 -3 11 0 18 7 17 6 -1 10 4 8 11 -1 6 1 11 5 11 22 -4 32 3 27 16 -4
8 -1 15 7 15 7 0 10 3 6 6 -6 6 6 24 35 51 9 9 15 20 12 25 -3 4 -1 8 5 8 5 0
13 9 16 20 4 11 11 17 17 14 6 -4 9 -3 5 2 -3 5 3 25 14 44 10 19 19 28 19 20
0 -8 7 0 15 18 8 18 21 40 30 48 8 9 13 19 10 24 -3 5 4 11 15 15 11 3 19 9
19 13 -3 21 2 32 13 26 8 -5 9 -2 5 9 -4 11 -1 17 8 17 8 0 15 7 15 15 0 8 5
15 11 15 5 0 7 5 4 10 -3 6 1 10 9 10 9 0 13 6 10 14 -3 8 3 19 15 26 12 6 21
17 21 25 0 8 5 15 11 15 5 0 7 5 4 10 -3 6 -1 10 5 10 6 0 8 5 5 11 -4 6 2 13
13 16 11 3 18 11 16 17 -3 7 2 19 10 26 9 7 13 16 10 21 -3 5 3 6 13 2 10 -3
15 -2 10 2 -4 5 2 19 14 31 13 14 19 30 15 39 -3 9 -2 14 3 11 9 -6 52 40 44
47 -8 9 40 57 51 50 7 -4 7 -1 -1 7 -8 9 -7 16 5 31 8 10 19 16 23 13 9 -5 6
16 -4 32 -4 7 0 11 11 10 9 0 16 5 14 12 -1 6 4 11 10 10 7 -2 12 3 10 10 -1
6 2 12 7 12 5 0 11 9 14 21 4 13 10 18 17 14 9 -6 9 -2 0 15 -7 12 -8 20 -2
16 13 -8 45 42 38 60 -3 8 -2 13 2 10 14 -9 33 10 35 35 2 26 30 59 50 59 8 0
7 4 -3 10 -13 9 -13 10 0 10 13 0 13 1 0 10 -11 7 -11 10 -2 10 7 0 10 4 7 10
-4 6 1 7 11 3 13 -5 16 -3 11 10 -4 10 -2 17 4 17 6 0 9 7 5 15 -3 8 -2 14 2
14 17 -3 32 2 31 8 -1 5 0 11 1 16 4 12 7 26 9 38 0 5 6 7 13 3 6 -4 8 -3 4 4
-3 6 1 17 10 26 8 9 12 21 8 27 -4 8 -3 9 4 5 11 -7 17 6 13 28 -1 5 5 6 13 3
11 -4 13 -1 9 10 -4 11 -2 14 5 9 8 -5 10 -2 6 8 -4 9 -1 16 6 16 7 0 10 7 6
16 -4 11 -2 15 8 11 10 -4 13 -1 10 7 -3 8 0 17 5 21 6 3 8 11 5 17 -4 6 -3 9
2 6 14 -9 34 16 34 41 0 5 7 17 16 25 8 9 16 25 17 35 0 11 5 17 9 15 4 -3 8
0 8 6 0 6 5 8 11 4 8 -4 8 0 0 15 -10 18 -9 20 5 14 11 -4 15 -3 10 5 -3 6 -1
14 5 17 5 4 8 14 4 22 -4 13 -3 14 9 4 13 -11 15 -9 11 7 -2 12 3 23 12 26 9
4 13 9 10 13 -4 3 3 19 14 34 11 16 17 29 12 29 -4 0 -1 5 7 10 8 5 15 14 15
19 0 11 22 45 43 67 8 8 8 15 2 19 -6 4 -5 11 3 19 6 8 16 11 21 8 5 -3 6 0 2
7 -5 7 0 18 10 26 13 9 14 14 6 15 -10 0 -10 4 2 16 15 14 20 28 17 47 0 4 4
7 10 7 5 0 8 4 4 9 -3 6 5 15 17 22 22 12 22 12 3 20 -18 7 -18 8 -2 8 10 1
16 5 13 10 -3 5 1 14 10 22 8 7 20 22 25 33 8 16 6 15 -10 -4 -11 -14 -21 -22
-21 -18 0 4 15 24 33 45 17 20 26 34 20 29 -9 -5 -11 -2 -7 8 3 9 11 16 16 16
5 0 8 6 5 13 -2 6 2 17 10 22 8 6 15 20 16 33 0 12 5 22 10 22 5 0 7 6 4 14
-3 8 1 17 9 20 8 3 14 15 14 26 0 11 7 20 15 20 9 0 12 6 9 15 -4 8 -2 15 4
15 6 0 9 11 8 25 -2 13 1 22 5 19 5 -3 13 6 19 20 5 14 14 26 20 26 6 0 9 4 6
9 -9 14 5 42 16 35 6 -4 5 3 -1 15 -8 14 -8 21 -1 21 13 0 34 49 31 70 -2 8 0
12 4 8 10 -10 33 14 28 29 -3 6 5 21 16 32 23 23 27 41 9 41 -6 0 -1 9 12 20
13 11 19 20 15 20 -4 0 0 9 9 19 10 11 15 25 11 30 -3 6 1 11 9 11 10 0 13 6
10 15 -4 9 0 15 7 15 12 0 12 2 1 9 -11 7 -10 9 3 15 9 3 13 10 10 16 -3 5 1
10 9 10 9 0 15 3 15 8 -1 4 -1 9 1 12 1 3 3 16 6 30 2 14 11 30 19 36 8 6 12
14 8 17 -3 4 -1 7 5 7 7 0 12 5 12 11 0 5 -6 7 -12 4 -7 -4 -5 0 5 8 10 9 18
18 18 21 -3 24 0 36 9 31 11 -7 25 39 15 54 -3 6 -1 11 5 11 6 0 8 5 5 10 -3
6 0 10 7 10 10 0 10 2 -1 9 -11 7 -9 10 8 16 17 5 20 10 11 20 -9 11 -8 19 3
36 9 12 13 28 10 35 -3 8 0 14 7 14 6 0 8 5 5 10 -3 6 -1 10 5 10 7 0 10 7 7
15 -4 8 -1 17 5 21 7 4 6 9 -3 15 -11 7 -10 9 3 9 11 0 15 5 12 15 -4 8 -1 15
6 15 10 0 10 3 0 15 -9 10 -9 15 -1 15 6 0 11 7 11 16 0 9 5 12 12 8 7 -5 8
-3 3 7 -11 16 -14 50 -5 44 3 -2 11 5 18 15 7 12 8 21 2 25 -6 4 -3 16 6 31 9
14 18 35 19 47 4 37 5 38 16 31 8 -5 8 -1 0 14 -8 15 -8 21 1 24 7 3 13 18 13
34 1 20 5 28 15 26 11 -3 12 -1 4 8 -14 14 -6 53 8 44 6 -4 5 4 -2 16 -7 13
-8 20 -2 16 12 -7 26 29 17 43 -3 5 -1 12 5 16 6 4 8 11 5 16 -4 5 -1 9 5 9 6
0 8 4 5 10 -3 5 -1 19 5 30 8 15 8 20 -2 21 -7 0 -2 5 12 11 15 6 20 12 13 15
-9 3 -10 10 -3 22 5 10 6 21 3 25 -3 3 -1 6 6 6 7 0 9 5 5 11 -3 6 0 15 7 20
12 7 12 10 1 18 -11 6 -10 10 3 15 10 3 15 12 12 20 -3 8 -1 17 6 20 9 3 9 5
0 5 -7 1 -13 6 -13 12 0 5 5 7 10 4 6 -3 11 0 12 7 0 7 2 18 2 23 1 6 6 17 11
25 5 8 9 28 10 45 2 29 0 31 -31 30 -18 0 -31 2 -29 5 7 12 -80 8 -88 -4 -6
-7 -7 -4 -3 8 5 16 2 18 -23 14 -17 -2 -28 -1 -25 3 2 5 -6 8 -18 7 -47 -2
-79 2 -75 10 3 4 -5 7 -16 8 -49 1 -144 14 -175 23 -19 6 -30 6 -27 0 4 -5 1
-9 -4 -9 -6 0 -11 6 -11 13 0 8 -4 7 -10 -3 -7 -11 -10 -11 -10 -2 0 7 -4 10
-10 7 -5 -3 -10 0 -10 7 0 10 -2 10 -9 -1 -7 -11 -9 -11 -14 0 -4 12 -7 11
-16 -1 -8 -12 -11 -12 -11 -1 0 9 -10 12 -35 9 -23 -3 -36 1 -40 9 -3 10 -10
11 -24 3 -24 -12 -34 -13 -27 -2 3 5 -13 9 -36 10 -22 1 -48 8 -56 14 -13 10
-14 10 -8 1 10 -18 1 -16 -18 3 -15 14 -16 14 -16 -1 0 -15 -1 -15 -16 0 -10
9 -20 13 -23 8 -7 -10 -37 -10 -46 -1 -4 4 -14 4 -23 1 -11 -5 -13 -3 -7 7 5
9 4 11 -3 6 -15 -9 -54 12 -46 25 8 13 -24 61 -36 54 -5 -3 -7 6 -4 21 3 15
-2 37 -11 50 -8 13 -15 30 -15 39 0 9 -4 13 -10 10 -6 -3 -7 1 -4 10 4 8 0 23
-7 32 -12 14 -12 16 1 9 13 -7 13 -6 0 6 -8 7 -16 20 -18 28 -2 8 -8 17 -13
21 -5 3 -7 13 -3 22 4 10 0 19 -9 23 -9 3 -13 12 -10 20 3 8 0 14 -5 14 -6 0
-9 9 -7 20 2 11 0 20 -6 20 -5 0 -9 9 -9 20 0 11 -4 20 -10 20 -5 0 -10 9 -10
20 0 11 -5 20 -11 20 -5 0 -7 5 -4 10 4 6 0 21 -8 33 -14 23 -32 76 -29 90 1
4 -5 7 -14 7 -14 0 -14 3 -4 15 9 10 9 15 1 15 -6 0 -11 6 -11 14 0 7 -7 26
-14 42 -8 15 -12 32 -9 37 3 6 1 7 -5 3 -8 -5 -12 1 -12 14 0 12 -4 18 -10 15
-6 -3 -7 1 -4 10 4 8 1 22 -6 30 -7 8 -9 15 -4 15 5 0 2 5 -6 10 -13 8 -13 10
-1 10 11 0 10 4 -4 13 -10 8 -15 19 -11 25 3 6 1 14 -5 18 -8 5 -9 3 -4 -6 5
-8 4 -11 -3 -6 -6 4 -9 13 -5 21 3 9 -1 15 -8 15 -11 0 -11 2 1 10 12 8 12 10
-3 16 -14 5 -15 9 -6 20 10 12 8 13 -6 7 -15 -5 -17 -3 -11 12 4 10 2 21 -5
25 -6 4 -12 19 -12 33 -1 14 -5 23 -9 20 -5 -2 -9 1 -9 6 -3 21 -4 26 -14 41
-5 8 -11 23 -12 33 -2 10 -11 32 -20 50 -9 18 -16 38 -15 45 2 6 -2 12 -7 12
-6 0 -8 6 -5 14 3 8 0 17 -5 21 -6 3 -9 11 -6 16 4 5 -2 9 -12 9 -15 0 -16 2
-3 10 10 6 11 10 3 10 -7 0 -12 3 -12 8 4 21 -2 32 -13 26 -10 -6 -10 -4 -1 6
10 11 8 19 -10 39 -12 13 -15 21 -7 17 8 -4 6 0 -4 8 -11 9 -14 16 -7 16 7 0
9 5 6 10 -4 6 -11 7 -17 4 -7 -4 -8 -2 -4 5 4 6 0 23 -9 38 -11 17 -13 23 -4
17 9 -5 8 1 -3 19 -10 14 -18 33 -18 42 0 9 -4 13 -10 10 -5 -3 -11 -1 -11 4
-1 6 -2 19 -3 29 -4 34 -18 62 -28 56 -7 -5 -8 -2 -4 5 5 7 0 21 -10 32 -9 10
-19 34 -21 51 -2 18 -11 39 -20 48 -12 11 -14 11 -8 1 6 -10 4 -12 -4 -7 -7 5
-10 14 -7 22 3 8 1 14 -4 14 -6 0 -10 7 -10 15 0 9 -7 18 -15 21 -8 4 -13 10
-10 14 3 5 -1 15 -9 23 -8 8 -12 17 -9 21 3 3 -2 8 -11 12 -9 3 -13 10 -11 15
3 4 -3 17 -14 28 -11 11 -17 22 -13 25 3 3 0 6 -7 6 -7 0 -9 5 -6 10 3 6 1 10
-5 10 -6 0 -8 5 -5 10 3 6 1 10 -4 10 -6 0 -11 6 -11 13 0 7 -8 22 -17 33 -10
11 -19 26 -21 33 -1 7 -9 20 -17 28 -9 8 -13 19 -9 24 3 5 0 8 -6 7 -7 -2 -14
6 -16 17 -1 11 -10 25 -18 31 -9 6 -13 14 -9 17 3 4 -2 9 -11 13 -9 3 -14 10
-11 14 3 5 0 14 -7 22 -7 7 -14 20 -16 28 -2 8 -8 17 -13 18 -5 2 -7 8 -3 13
5 8 -9 13 -28 10 -4 0 -5 5 -2 13 6 16 -30 79 -39 70 -4 -4 -4 4 -2 16 2 12 2
20 -1 17 -10 -9 -32 17 -27 30 3 7 -2 16 -11 19 -9 3 -13 10 -10 15 3 5 -2 12
-10 15 -9 3 -13 10 -10 15 3 5 1 9 -4 9 -5 0 -12 9 -15 21 -4 14 -10 18 -19
13 -10 -6 -10 -5 -2 7 9 11 9 17 -1 26 -7 6 -16 9 -21 5 -4 -4 -4 -1 1 7 5 9
2 19 -9 27 -10 7 -18 16 -19 21 -1 4 -5 7 -9 6 -4 -2 -5 4 -2 12 4 8 1 15 -6
15 -6 0 -8 5 -5 10 3 6 1 10 -6 10 -7 0 -9 3 -6 7 4 3 -5 17 -19 30 -14 12
-20 23 -13 23 7 0 -2 14 -19 30 -18 17 -28 30 -23 30 5 0 7 9 4 21 -4 16 -8
17 -14 7 -7 -11 -9 -11 -9 1 0 18 -56 71 -66 63 -5 -4 -2 2 6 12 10 13 10 17
3 12 -7 -4 -13 -3 -13 3 0 5 -9 13 -20 16 -11 3 -20 13 -20 21 0 8 -4 14 -8
14 -5 0 -17 7 -28 15 -19 15 -19 15 1 9 12 -3 9 1 -7 11 -27 15 -40 32 -15 20
6 -4 3 0 -7 9 -10 8 -24 13 -29 9 -6 -4 -8 0 -4 11 5 13 1 19 -13 23 -10 3
-22 14 -25 24 -4 10 -11 19 -16 19 -18 0 -41 29 -33 41 4 8 3 9 -4 5 -7 -4
-12 -1 -12 6 0 9 -3 9 -10 -2 -8 -12 -10 -10 -10 8 0 13 -4 20 -10 17 -5 -3
-10 1 -10 9 0 15 -12 21 -33 17 -5 -1 -6 3 -3 8 4 5 -3 16 -14 24 -11 7 -17
16 -14 19 3 4 -4 9 -15 13 -12 4 -18 12 -14 21 4 10 0 12 -11 8 -9 -3 -16 -1
-16 6 0 6 -5 8 -10 5 -6 -4 -10 -3 -9 2 3 18 -1 34 -8 30 -5 -2 -16 4 -25 15
-10 10 -16 18 -13 18 3 0 -3 9 -12 19 -9 11 -21 17 -26 14 -6 -3 -7 -1 -3 5 3
6 -3 17 -14 25 -11 7 -17 17 -13 20 3 4 -1 7 -10 7 -9 0 -17 7 -17 17 0 9 -3
14 -6 11 -3 -3 -15 4 -28 16 -15 14 -19 25 -13 34 7 9 6 11 -6 7 -10 -4 -32
10 -64 41 -26 27 -39 42 -28 34 18 -14 19 -14 6 3 -7 9 -18 17 -23 17 -13 0
-78 67 -71 74 4 3 1 6 -6 6 -7 0 -26 15 -42 33 -73 79 -92 96 -103 90 -6 -4
-5 1 3 10 8 10 11 20 7 24 -3 3 -6 1 -6 -7 0 -10 -3 -10 -15 0 -8 7 -12 17 -8
23 3 5 2 7 -3 4 -6 -3 -16 -1 -24 4 -13 8 -13 10 0 20 12 8 10 9 -7 4 -17 -5
-23 -2 -23 9 0 15 -12 21 -34 17 -5 -1 -3 6 4 16 8 10 10 15 5 10 -4 -4 -20 3
-33 15 -14 13 -22 17 -18 11 4 -7 5 -13 2 -13 -3 0 -10 9 -16 21 -9 17 -8 23
7 35 14 11 15 13 2 8 -10 -3 -20 0 -24 6 -4 6 -1 9 7 8 7 -2 12 3 10 10 -2 10
2 10 17 3 26 -14 34 -1 14 22 -10 11 -13 18 -8 15 6 -3 21 -2 34 3 20 8 22 11
10 26 -10 12 -10 14 -1 9 7 -4 12 -1 12 8 0 10 6 13 15 10 11 -5 15 1 15 21 0
15 4 24 10 20 6 -4 8 -12 4 -18 -3 -7 2 -3 10 7 10 13 16 15 16 7 0 -11 3 -11
17 0 9 8 15 10 12 4 -7 -13 39 -57 46 -44 4 5 12 9 18 9 7 0 6 -4 -3 -10 -12
-8 -11 -10 8 -10 23 0 31 -25 10 -33 -8 -4 -7 -6 4 -6 9 -1 19 5 21 12 3 7 6
4 6 -6 1 -10 6 -15 11 -12 6 3 10 -1 10 -10 0 -16 38 -37 53 -28 4 2 7 -1 7
-8 0 -6 8 -9 20 -6 11 3 18 1 15 -3 -3 -5 11 -14 30 -20 19 -6 38 -16 41 -22
5 -7 2 -8 -6 -3 -8 5 -11 4 -7 -3 5 -7 14 -7 31 1 13 7 22 15 20 19 -3 5 4 8
15 8 11 0 23 5 26 10 4 6 10 8 14 5 5 -2 13 7 20 21 6 14 15 22 21 19 5 -3 18
3 29 14 11 11 22 17 25 14 3 -3 8 2 12 11 3 9 10 13 15 10 5 -3 9 0 9 6 0 6 5
8 10 5 6 -3 10 1 10 10 0 13 4 14 20 5 11 -6 20 -7 19 -3 -3 20 2 34 11 28 6
-3 10 1 10 10 0 9 5 13 10 10 6 -3 10 -1 10 5 0 6 5 8 11 5 5 -4 18 2 28 14
10 11 21 18 25 14 3 -3 6 2 6 12 0 10 3 15 7 12 3 -4 12 -2 20 4 7 6 13 8 13
4 0 -5 9 0 20 10 11 10 17 22 13 28 -3 6 -1 7 5 3 7 -4 12 -2 12 5 0 9 3 9 14
0 11 -9 16 -9 22 0 4 8 3 9 -4 5 -7 -4 -12 -2 -12 3 0 6 11 11 25 11 15 0 31
9 41 25 9 14 20 23 24 20 4 -3 10 2 14 10 3 8 11 15 18 15 6 0 28 15 47 33 25
22 30 25 16 7 -17 -21 -15 -20 13 4 17 17 32 26 32 21 0 -4 9 0 20 10 11 10
17 22 13 28 -4 6 -1 7 6 3 7 -5 19 0 27 10 9 11 13 13 9 7 -3 -7 -1 -13 4 -13
12 0 12 1 16 37 2 19 0 21 -18 12 -14 -8 -18 -8 -13 0 4 6 2 12 -3 12 -6 1
-15 2 -21 3 -15 2 -15 9 -2 31 6 11 12 16 12 12 0 -4 6 -2 14 5 8 7 11 17 8
22 -3 5 0 6 6 2 12 -7 94 68 84 79 -3 3 1 3 11 -1 12 -4 17 -1 17 11 0 9 5 13
10 10 6 -3 10 -1 10 5 0 6 5 8 10 5 6 -3 10 2 11 12 0 10 3 13 6 6 3 -10 7
-10 18 0 7 7 11 15 8 20 -2 4 4 10 14 14 10 4 21 11 25 17 4 6 12 11 18 11 5
0 10 5 11 10 0 6 11 16 25 23 13 7 24 17 24 22 0 5 7 7 15 3 9 -3 15 -2 14 3
-3 18 1 34 9 33 19 -3 25 2 12 12 -12 8 -10 9 10 7 16 -2 24 2 23 9 -2 7 8 15
22 19 14 3 23 9 21 13 -4 6 26 38 32 33 7 -6 30 26 24 33 -4 5 -2 5 4 2 14 -8
37 17 26 28 -4 4 4 2 17 -5 13 -6 21 -8 17 -2 -8 13 26 50 42 45 6 -3 12 3 12
12 0 12 5 15 16 11 15 -6 15 -4 3 11 -9 11 -10 14 -2 9 8 -4 22 3 37 18 13 14
28 26 35 26 6 0 11 5 11 10 0 6 7 10 15 10 9 0 12 6 8 17 -4 11 -3 14 5 9 7
-4 12 -2 12 5 0 7 3 10 6 6 4 -3 13 1 21 9 8 8 18 12 23 9 4 -3 7 3 6 13 -1
11 5 16 18 14 11 -2 15 1 11 7 -3 6 -1 11 4 11 6 0 11 7 11 16 0 8 5 12 10 9
6 -3 10 -1 10 4 0 6 3 10 8 10 4 -1 14 -1 22 0 13 1 13 2 0 11 -13 8 -12 10 4
10 12 0 16 5 12 16 -3 8 -2 13 3 9 13 -7 42 5 35 16 -3 5 2 9 11 9 8 0 18 7
21 15 4 8 12 15 19 15 7 0 21 11 31 25 10 14 25 25 32 25 9 0 12 6 8 16 -3 9
-2 12 5 9 12 -8 41 14 34 26 -3 4 7 6 22 3 19 -3 24 -1 14 5 -10 7 -8 12 10
25 13 9 30 16 39 16 13 0 13 1 0 10 -13 8 -13 10 1 10 9 0 24 10 33 23 9 12
14 15 10 7 -3 -8 5 -3 18 12 14 15 28 25 31 22 3 -3 8 4 12 15 3 12 11 21 16
21 6 0 8 4 5 9 -3 5 2 8 11 7 9 0 23 10 30 24 7 14 13 21 13 16 0 -5 6 -3 13
3 8 6 18 7 22 3 5 -4 6 -2 3 3 -7 12 17 37 26 28 5 -6 10 12 7 29 0 4 5 5 12
3 18 -7 50 21 41 36 -4 8 -3 10 4 5 7 -4 21 2 33 13 12 11 26 18 31 15 7 -5
12 10 9 28 0 5 5 7 12 5 6 -1 11 4 9 11 -1 8 2 10 8 7 6 -4 22 5 36 20 14 16
29 23 37 19 9 -6 9 -4 -1 8 -12 14 -10 16 10 11 17 -3 19 -2 9 5 -11 8 -9 11
8 17 11 3 21 11 21 16 0 17 -27 39 -47 39 -14 0 -15 2 -5 9 10 6 9 10 -7 14
-34 9 -35 9 -47 25 -7 9 -16 12 -24 7 -9 -6 -11 -4 -5 5 6 10 4 12 -8 7 -11
-4 -17 -1 -17 8 0 13 -36 31 -52 27 -4 -1 -12 7 -18 18 -6 11 -15 20 -21 20
-16 0 -39 27 -31 36 4 5 -2 2 -12 -6 -13 -10 -17 -10 -12 -2 4 7 1 12 -9 12
-9 0 -13 5 -10 10 3 6 -3 10 -14 10 -12 0 -21 5 -21 10 0 6 -7 10 -15 10 -8 0
-15 5 -15 10 0 6 -7 10 -15 10 -8 0 -24 9 -35 20 -11 11 -24 20 -30 20 -5 0
-10 5 -10 11 0 5 -4 8 -9 4 -6 -3 -14 2 -19 11 -5 9 -20 17 -34 17 -16 1 -24
7 -21 14 5 14 -36 34 -51 25 -5 -3 -6 0 -2 6 7 11 -6 17 -27 13 -5 -1 -6 3 -2
9 3 5 1 10 -5 10 -6 0 -8 5 -4 12 5 7 3 8 -6 3 -7 -4 -15 -3 -19 2 -8 13 -93
58 -104 55 -5 -1 -6 2 -2 8 3 5 1 10 -5 10 -6 0 -8 4 -5 10 3 5 0 7 -9 4 -13
-5 -34 8 -72 44 -8 7 -14 11 -14 7 0 -3 -13 3 -29 14 -15 11 -32 17 -36 13 -5
-4 -5 -1 -1 6 8 14 -52 44 -69 35 -5 -4 -7 -2 -2 2 8 10 -51 38 -63 30 -5 -3
-15 4 -23 16 -11 15 -16 17 -20 7 -4 -9 -6 -9 -6 2 -1 9 -11 17 -23 17 -13 1
-24 7 -26 13 -2 5 -8 10 -13 10 -6 0 -29 9 -51 20 -30 14 -44 17 -49 9 -4 -7
-9 -4 -14 9 -3 12 -9 21 -13 20 -12 -3 -82 26 -82 34 0 4 -10 8 -21 8 -12 0
-28 8 -36 18 -14 16 -14 16 -9 -3 6 -19 5 -19 -12 1 -10 11 -26 20 -36 18 -10
-1 -15 0 -12 4 9 8 -64 43 -75 36 -5 -3 -9 2 -9 10 0 9 -7 13 -20 11 -11 -2
-20 1 -20 7 0 5 -7 7 -16 4 -10 -4 -13 -2 -8 6 5 8 0 9 -15 5 -17 -4 -20 -3
-11 7 8 10 6 13 -7 13 -33 0 -44 3 -40 11 3 4 -7 8 -21 9 -15 0 -28 6 -30 12
-2 6 -15 11 -28 11 -13 0 -24 5 -24 11 0 7 -12 10 -30 7 -19 -3 -30 0 -30 7 0
6 -7 12 -15 12 -8 0 -15 -4 -15 -9 0 -5 -7 -3 -15 5 -8 9 -24 13 -35 10 -11
-3 -20 -1 -20 4 0 10 -16 13 -57 13 -13 0 -23 5 -23 11 0 5 -4 7 -10 4 -5 -3
-10 0 -10 7 0 8 -3 9 -8 3 -9 -13 -42 -15 -42 -3 0 6 -7 8 -15 4 -8 -3 -15 -1
-15 3 0 5 -13 8 -30 7 -16 -1 -30 2 -30 6 0 5 -6 3 -14 -4 -8 -7 -11 -17 -8
-22 3 -5 -2 -6 -12 -3 -10 4 -15 3 -11 -3 3 -6 1 -10 -5 -10 -7 0 -10 -7 -7
-14 4 -9 -2 -17 -14 -21 -10 -4 -17 -10 -15 -14 3 -4 -4 -14 -15 -21 -10 -8
-19 -20 -19 -28 0 -7 -4 -11 -8 -8 -5 3 -15 -6 -22 -19 -7 -14 -17 -25 -22
-25 -5 0 -6 -4 -3 -10 3 -5 1 -10 -5 -10 -6 0 -8 -5 -4 -12 5 -8 0 -7 -11 2
-10 8 -16 10 -12 3 4 -6 -6 -25 -24 -42 -17 -18 -27 -36 -23 -42 4 -8 3 -9 -4
-5 -11 6 -16 -5 -13 -26 0 -4 -7 -4 -16 -1 -10 4 -14 2 -10 -4 4 -6 0 -14 -9
-17 -8 -3 -21 -21 -29 -40 -14 -32 -46 -61 -57 -51 -2 2 -5 -7 -6 -21 -1 -14
-7 -33 -12 -42 -9 -14 -10 -12 -5 8 6 23 5 24 -6 5 -7 -11 -18 -24 -26 -28 -7
-5 -10 -13 -7 -19 4 -7 2 -8 -5 -4 -7 4 -10 13 -8 19 2 7 0 20 -5 31 -7 13 -7
16 1 12 10 -7 16 6 12 28 -1 4 4 14 10 22 9 11 9 14 0 14 -8 0 -9 6 -2 18 10
18 11 24 11 48 0 9 5 12 13 8 9 -5 9 -4 1 5 -12 13 -7 61 7 61 5 0 4 12 -1 26
-6 15 -6 23 -1 19 5 -3 12 -1 16 5 3 5 2 10 -2 10 -5 0 -9 9 -9 19 0 11 3 18
6 16 3 -2 10 8 17 21 6 13 8 24 5 24 -4 0 -7 11 -7 24 0 13 4 22 9 18 5 -3 7
2 3 11 -4 10 -2 17 4 17 6 0 9 7 6 15 -4 8 -1 17 5 21 7 4 6 9 -3 15 -9 5 -10
9 -3 9 7 0 15 7 18 16 4 10 2 13 -7 8 -9 -6 -9 -4 1 8 7 9 11 28 8 42 -3 16 0
25 7 23 7 -1 11 4 9 12 -1 7 2 19 8 26 8 10 7 14 -2 17 -10 4 -10 8 -1 19 17
22 23 77 8 83 -7 2 -17 0 -22 -5 -6 -6 -14 -4 -23 6 -15 18 -34 20 -25 3 4 -7
-1 -4 -9 6 -9 11 -16 15 -16 10 0 -11 -46 -11 -57 -1 -11 11 -25 8 -17 -4 4
-6 -3 -6 -17 2 -13 7 -46 15 -74 17 -27 1 -60 3 -72 4 -13 1 -23 5 -23 9 0 4
-9 9 -20 12 -11 3 -20 1 -20 -4 0 -6 -7 -6 -17 -1 -10 4 -28 7 -41 6 -12 0
-25 3 -28 7 -3 5 -14 4 -26 -2 -15 -8 -19 -8 -14 0 5 8 -6 10 -33 8 -28 -2
-42 1 -46 11 -4 11 -8 12 -19 3 -11 -9 -15 -9 -19 1 -4 10 -8 10 -16 -2 -8
-12 -11 -12 -11 -1 0 9 -8 12 -25 9 -14 -3 -25 -2 -25 1 0 4 -18 6 -40 5 -35
-1 -38 1 -27 15 10 12 9 13 -2 7 -16 -10 -111 -14 -105 -4 2 4 0 9 -5 12 -5 4
-12 2 -16 -4 -4 -6 -12 -7 -18 -3 -7 4 -36 8 -66 10 -31 1 -58 7 -62 15 -7 10
-9 10 -9 -2 0 -9 -3 -11 -8 -5 -4 6 -25 11 -47 12 -48 2 -66 6 -82 16 -8 5
-13 3 -13 -5 0 -10 -2 -10 -9 1 -9 14 -71 22 -71 9 0 -4 -13 -3 -30 2 -17 5
-30 5 -30 0 0 -5 -13 -5 -30 0 -17 5 -30 5 -30 0 0 -5 -13 -5 -30 0 -16 5 -30
6 -30 2z m-2627 -878 c7 1 9 1 4 -1 -4 -3 -5 -8 -3 -12 3 -4 -1 -8 -7 -8 -7 0
-13 10 -14 21 -1 12 1 16 4 9 2 -7 10 -11 16 -9z m3951 -90 c3 -8 2 -12 -4 -9
-6 3 -10 10 -10 16 0 14 7 11 14 -7z m-8140 -3222 c2 -4 -5 -9 -17 -9 -17 -2
-19 0 -7 7 18 12 18 12 24 2z m2176 -1376 c0 -3 -4 -8 -10 -11 -5 -3 -10 -1
-10 4 0 6 5 11 10 11 6 0 10 -2 10 -4z m-2961 -729 c0 -8 -2 -8 -6 1 -4 10 -8
10 -21 0 -15 -12 -16 -11 -3 4 14 19 32 15 30 -5z m-454 -477 c-3 -5 -12 -10
-18 -10 -7 0 -6 4 3 10 19 12 23 12 15 0z m-411 -289 c3 -5 -3 -11 -15 -14
-16 -4 -18 -3 -8 9 13 16 16 17 23 5z m-311 -154 c3 -8 -3 -14 -15 -14 -16 -2
-17 1 -8 13 15 17 17 17 23 1z m-809 -855 c3 -5 -1 -9 -9 -9 -8 0 -12 4 -9 9
3 4 7 8 9 8 2 0 6 -4 9 -8z m4466 -1002 c0 -5 -2 -10 -4 -10 -3 0 -8 5 -11 10
-3 6 -1 10 4 10 6 0 11 -4 11 -10z m55 -90 c-3 -5 -14 -10 -23 -9 -14 0 -13 2
3 9 27 11 27 11 20 0z m8000 -2630 c-3 -5 -12 -10 -18 -10 -7 0 -6 4 3 10 19
12 23 12 15 0z"/>
<path d="M7309 13477 c6 -14 7 -28 3 -33 -4 -4 -2 -4 5 -1 12 7 7 44 -8 53 -5
3 -5 -6 0 -19z"/>
<path d="M11540 12929 c0 -5 5 -7 10 -4 6 3 10 8 10 11 0 2 -4 4 -10 4 -5 0
-10 -5 -10 -11z"/>
<path d="M4143 11785 c0 -8 4 -12 9 -9 5 3 6 10 3 15 -9 13 -12 11 -12 -6z"/>
<path d="M11346 10287 c3 -10 9 -15 12 -12 3 3 0 11 -7 18 -10 9 -11 8 -5 -6z"/>
<path d="M3142 9011 c-11 -7 -11 -9 0 -14 9 -3 15 1 15 9 0 8 -1 14 -1 14 -1
0 -7 -4 -14 -9z"/>
<path d="M3060 8730 c-9 -6 -10 -10 -3 -10 6 0 15 5 18 10 8 12 4 12 -15 0z"/>
<path d="M3016 8598 c3 -5 10 -6 15 -3 13 9 11 12 -6 12 -8 0 -12 -4 -9 -9z"/>
<path d="M13067 7719 c7 -7 15 -10 18 -7 3 3 -2 9 -12 12 -14 6 -15 5 -6 -5z"/>
<path d="M2346 7333 c-6 -14 -5 -15 5 -6 7 7 10 15 7 18 -3 3 -9 -2 -12 -12z"/>
<path d="M2320 7300 c-9 -6 -10 -10 -3 -10 6 0 15 5 18 10 8 12 4 12 -15 0z"/>
<path d="M4920 6159 c0 -5 5 -7 10 -4 6 3 10 8 10 11 0 2 -4 4 -10 4 -5 0 -10
-5 -10 -11z"/>
<path d="M1028 5993 c6 -2 9 -10 6 -15 -4 -7 -2 -8 5 -4 13 9 5 26 -12 25 -9
0 -8 -2 1 -6z"/>
</g>
</svg>
